<svg xmlns="http://www.w3.org/2000/svg" style="background: rgba(0, 0, 0, 0);" preserveAspectRatio="xMidYMid" viewBox="-45.17 21.65 590.34 109.06"><defs><filter id="editing-hole" x="-100%" y="-100%" width="300%" height="300%"><feFlood flood-color="#000000" result="black"/><feMorphology operator="dilate" radius="2" in="SourceGraphic" result="erode"/><feGaussianBlur in="erode" stdDeviation="4" result="blur"/><feOffset in="blur" dx="2" dy="2" result="offset"/><feComposite operator="atop" in="offset" in2="black" result="merge"/><feComposite operator="in" in="merge" in2="SourceGraphic" result="inner-shadow"/></filter></defs><g filter="url(#editing-hole)"><g transform="translate(-47.94999051094055, 129.5300006866455)"><path d="M19.20-104.04L19.20-104.04L27.83-104.04L27.83 0L15.66 0L15.66-87.62L15.66-87.62Q13.65-85.20 9.98-83.87L9.98-83.87L9.98-83.87Q6.32-82.54 2.78-82.54L2.78-82.54L2.78-91.05L2.78-91.05Q7.80-91.75 12.32-95.12L12.32-95.12L12.32-95.12Q16.84-98.49 19.20-104.04ZM88.62-88.62L88.62-79.41L88.62-79.41Q89.86-83.90 93.53-86.82L93.53-86.82L93.53-86.82Q97.19-89.75 102.45-89.75L102.45-89.75L102.45-89.75Q111.78-89.75 114.97-80.77L114.97-80.77L114.97-80.77Q117.22-84.90 121.09-87.32L121.09-87.32L121.09-87.32Q124.96-89.75 129.98-89.75L129.98-89.75L129.98-89.75Q137.01-89.75 140.67-84.72L140.67-84.72L140.67-84.72Q144.34-79.70 144.34-69.95L144.34-69.95L144.34 0L132.23 0L132.23-70.31L132.23-70.31Q132.23-79.29 125.14-79.29L125.14-79.29L125.14-79.29Q117.10-79.29 116.51-71.08L116.51-71.08L116.51 0L104.34 0L104.34-70.37L104.34-70.37Q104.34-79.29 97.37-79.29L97.37-79.29L97.37-79.29Q93.11-79.29 90.87-76.54L90.87-76.54L90.87-76.54Q88.62-73.79 88.62-69.01L88.62-69.01L88.62 0L76.51 0L76.51-88.62L88.62-88.62ZM161.29 0L161.29-88.62L173.41-88.62L173.41 0L161.29 0ZM161.29-96.78L161.29-107.88L173.46-107.88L173.46-96.78L161.29-96.78ZM202.95-88.62L202.95-79.23L202.95-79.23Q204.13-83.54 208.12-86.64L208.12-86.64L208.12-86.64Q212.10-89.75 218.04-89.75L218.04-89.75L218.04-89.75Q223.98-89.75 227.67-84.93L227.67-84.93L227.67-84.93Q231.37-80.12 231.37-70.66L231.37-70.66L231.37 0L219.25 0L219.25-70.60L219.25-70.60Q219.25-75.09 217.19-77.34L217.19-77.34L217.19-77.34Q215.12-79.58 211.45-79.58L211.45-79.58L211.45-79.58Q207.79-79.58 205.37-77.04L205.37-77.04L205.37-77.04Q202.95-74.50 202.95-69.42L202.95-69.42L202.95 0L190.83 0L190.83-88.62L202.95-88.62ZM275.85-20.09L275.85-88.62L288.02-88.62L288.02 0L275.85 0L275.85-9.04L275.85-9.04Q274.44-4.55 270.98-1.68L270.98-1.68L270.98-1.68Q267.52 1.18 261.70 1.18L261.70 1.18L261.70 1.18Q255.88 1.18 251.72-3.63L251.72-3.63L251.72-3.63Q247.55-8.45 247.55-18.43L247.55-18.43L247.55-88.62L259.67-88.62L259.67-19.79L259.67-19.79Q259.67-9.33 267.29-9.33L267.29-9.33L267.29-9.33Q271.54-9.33 273.70-12.29L273.70-12.29L273.70-12.29Q275.85-15.24 275.85-20.09L275.85-20.09ZM307.46-87.91L307.46-103.98L319.57-103.98L319.57-87.91L329.15-87.91L329.15-78.93L319.57-78.93L319.57-14.24L319.57-14.24Q319.57-10.81 321.17-9.96L321.17-9.96L321.17-9.96Q322.77-9.10 329.26-9.10L329.26-9.10L329.26 0.53L320.93 0.53L320.93 0.53Q312.54 0.53 310.00-2.51L310.00-2.51L310.00-2.51Q307.46-5.55 307.46-13.18L307.46-13.18L307.46-78.93L299.37-78.93L299.37-87.91L307.46-87.91ZM340.14-29.84L340.14-61.15L340.14-61.15Q340.14-77.93 346.16-84.49L346.16-84.49L346.16-84.49Q350.89-89.69 360.10-89.69L360.10-89.69L360.10-89.69Q373.46-89.69 376.88-78.17L376.88-78.17L376.88-78.17Q378.77-71.67 378.77-60.62L378.77-60.62L378.77-43.90L352.31-43.90L352.31-26.23L352.31-26.23Q352.31-14.71 354.14-11.88L354.14-11.88L354.14-11.88Q355.97-9.04 359.93-9.04L359.93-9.04L359.93-9.04Q363.89-9.04 365.22-12.35L365.22-12.35L365.22-12.35Q366.54-15.66 366.60-19.53L366.60-19.53L366.60-19.53Q366.66-23.40 366.66-26.06L366.66-26.06L366.66-33.20L378.54-33.20L378.54-29.42L378.54-29.42Q378.54-15.30 376.56-9.63L376.56-9.63L376.56-9.63Q374.58-3.96 370.56-1.45L370.56-1.45L370.56-1.45Q366.54 1.06 360.61 1.06L360.61 1.06L360.61 1.06Q354.67 1.06 351.09-0.44L351.09-0.44L351.09-0.44Q347.52-1.95 345.42-4.43L345.42-4.43L345.42-4.43Q343.33-6.91 341.73-12.35L341.73-12.35L341.73-12.35Q340.14-17.78 340.14-29.84L340.14-29.84ZM366.66-52.11L366.66-63.40L366.66-63.40Q366.66-72.85 365.98-74.80L365.98-74.80L365.98-74.80Q365.30-76.75 364.24-78.22L364.24-78.22L364.24-78.22Q363.18-79.70 360.40-79.70L360.40-79.70L360.40-79.70Q355.08-79.70 353.67-75.24L353.67-75.24L353.67-75.24Q352.25-70.78 352.25-62.98L352.25-62.98L352.25-52.11L366.66-52.11ZM424.03 0L424.03-105.11L436.14-105.11L436.14 0L424.03 0ZM452.21-29.84L452.21-61.15L452.21-61.15Q452.21-77.93 458.24-84.49L458.24-84.49L458.24-84.49Q462.97-89.69 472.18-89.69L472.18-89.69L472.18-89.69Q485.54-89.69 488.96-78.17L488.96-78.17L488.96-78.17Q490.85-71.67 490.85-60.62L490.85-60.62L490.85-43.90L464.38-43.90L464.38-26.23L464.38-26.23Q464.38-14.71 466.22-11.88L466.22-11.88L466.22-11.88Q468.05-9.04 472.01-9.04L472.01-9.04L472.01-9.04Q475.96-9.04 477.29-12.35L477.29-12.35L477.29-12.35Q478.62-15.66 478.68-19.53L478.68-19.53L478.68-19.53Q478.74-23.40 478.74-26.06L478.74-26.06L478.74-33.20L490.62-33.20L490.62-29.42L490.62-29.42Q490.62-15.30 488.64-9.63L488.64-9.63L488.64-9.63Q486.66-3.96 482.64-1.45L482.64-1.45L482.64-1.45Q478.62 1.06 472.69 1.06L472.69 1.06L472.69 1.06Q466.75 1.06 463.17-0.44L463.17-0.44L463.17-0.44Q459.60-1.95 457.50-4.43L457.50-4.43L457.50-4.43Q455.40-6.91 453.81-12.35L453.81-12.35L453.81-12.35Q452.21-17.78 452.21-29.84L452.21-29.84ZM478.74-52.11L478.74-63.40L478.74-63.40Q478.74-72.85 478.06-74.80L478.06-74.80L478.06-74.80Q477.38-76.75 476.32-78.22L476.32-78.22L476.32-78.22Q475.26-79.70 472.48-79.70L472.48-79.70L472.48-79.70Q467.16-79.70 465.74-75.24L465.74-75.24L465.74-75.24Q464.33-70.78 464.33-62.98L464.33-62.98L464.33-52.11L478.74-52.11ZM509.46-85.20L509.46-89.51L509.46-89.51Q509.46-105.52 523.17-105.52L523.17-105.52L523.17-105.52Q528.25-105.52 531.97-104.28L531.97-104.28L531.97-95.83L531.97-95.83Q529.61-96.19 526.83-96.19L526.83-96.19L526.83-96.19Q524.06-96.19 522.82-94.68L522.82-94.68L522.82-94.68Q521.58-93.17 521.58-89.98L521.58-89.98L521.58-85.20L531.97-85.20L531.97-76.27L521.58-76.27L521.58 0L509.46 0L509.46-76.27L501.84-76.27L501.84-85.20L509.46-85.20ZM545.27-87.91L545.27-103.98L557.38-103.98L557.38-87.91L566.95-87.91L566.95-78.93L557.38-78.93L557.38-14.24L557.38-14.24Q557.38-10.81 558.98-9.96L558.98-9.96L558.98-9.96Q560.57-9.10 567.07-9.10L567.07-9.10L567.07 0.53L558.74 0.53L558.74 0.53Q550.35 0.53 547.81-2.51L547.81-2.51L547.81-2.51Q545.27-5.55 545.27-13.18L545.27-13.18L545.27-78.93L537.17-78.93L537.17-87.91L545.27-87.91ZM583.73-23.34L579.24-103.98L593.12-103.98L588.69-23.34L583.73-23.34ZM579.54 0L579.54-13.47L592.65-13.47L592.65 0L579.54 0Z" fill="rgba(88.11011904761905%,39.93657644036388%,5.585849056603765%,0.98)"/></g></g><style>text {
  font-size: 64px;
  font-family: Arial Black;
  dominant-baseline: central;
  text-anchor: middle;
}</style></svg>