<svg xmlns="http://www.w3.org/2000/svg" style="background: rgba(0, 0, 0, 0);" preserveAspectRatio="xMidYMid" viewBox="-72.86 21.65 645.71 109.06"><defs><filter id="editing-hole" x="-100%" y="-100%" width="300%" height="300%"><feFlood flood-color="#000000" result="black"/><feMorphology operator="dilate" radius="2" in="SourceGraphic" result="erode"/><feGaussianBlur in="erode" stdDeviation="4" result="blur"/><feOffset in="blur" dx="2" dy="2" result="offset"/><feComposite operator="atop" in="offset" in2="black" result="merge"/><feComposite operator="in" in="merge" in2="SourceGraphic" result="inner-shadow"/></filter></defs><g filter="url(#editing-hole)"><g transform="translate(-82.42504119873047, 129.5300006866455)"><path d="M9.57-62.92L9.57-69.30L9.57-69.30Q9.57-93.65 14.65-99.26L14.65-99.26L14.65-99.26Q16.60-101.38 18.61-102.68L18.61-102.68L18.61-102.68Q22.45-105.17 29.36-105.17L29.36-105.17L29.36-105.17Q46.44-105.17 46.44-76.39L46.44-76.39L46.44-76.39Q46.44-62.10 39.05-48.15L39.05-48.15L39.05-48.15Q35.80-42.13 32.50-36.34L32.50-36.34L32.50-36.34Q24.16-21.92 22.10-9.16L22.10-9.16L44.84-9.16L44.84 0L10.28 0L10.28-5.79L10.28-5.79Q10.28-17.55 22.10-40.47L22.10-40.47L22.10-40.47Q22.16-40.53 25.94-47.86L25.94-47.86L25.94-47.86Q29.72-55.18 30.49-56.25L30.49-56.25L30.49-56.25Q32.44-59.85 33.65-65.88L33.65-65.88L33.65-65.88Q34.86-71.90 34.86-78.11L34.86-78.11L34.86-78.11Q34.86-84.31 33.97-88.27L33.97-88.27L33.97-88.27Q33.09-92.23 31.79-93.50L31.79-93.50L31.79-93.50Q30.49-94.77 28.68-94.77L28.68-94.77L28.68-94.77Q26.88-94.77 25.76-94.06L25.76-94.06L25.76-94.06Q21.51-91.46 21.51-76.45L21.51-76.45L21.51-62.92L9.57-62.92ZM103.22-88.62L103.22-79.41L103.22-79.41Q104.46-83.90 108.12-86.82L108.12-86.82L108.12-86.82Q111.78-89.75 117.04-89.75L117.04-89.75L117.04-89.75Q126.38-89.75 129.57-80.77L129.57-80.77L129.57-80.77Q131.81-84.90 135.68-87.32L135.68-87.32L135.68-87.32Q139.55-89.75 144.57-89.75L144.57-89.75L144.57-89.75Q151.60-89.75 155.27-84.72L155.27-84.72L155.27-84.72Q158.93-79.70 158.93-69.95L158.93-69.95L158.93 0L146.82 0L146.82-70.31L146.82-70.31Q146.82-79.29 139.73-79.29L139.73-79.29L139.73-79.29Q131.69-79.29 131.10-71.08L131.10-71.08L131.10 0L118.93 0L118.93-70.37L118.93-70.37Q118.93-79.29 111.96-79.29L111.96-79.29L111.96-79.29Q107.71-79.29 105.46-76.54L105.46-76.54L105.46-76.54Q103.22-73.79 103.22-69.01L103.22-69.01L103.22 0L91.10 0L91.10-88.62L103.22-88.62ZM175.89 0L175.89-88.62L188.00-88.62L188.00 0L175.89 0ZM175.89-96.78L175.89-107.88L188.06-107.88L188.06-96.78L175.89-96.78ZM217.54-88.62L217.54-79.23L217.54-79.23Q218.72-83.54 222.71-86.64L222.71-86.64L222.71-86.64Q226.70-89.75 232.64-89.75L232.64-89.75L232.64-89.75Q238.57-89.75 242.27-84.93L242.27-84.93L242.27-84.93Q245.96-80.12 245.96-70.66L245.96-70.66L245.96 0L233.85 0L233.85-70.60L233.85-70.60Q233.85-75.09 231.78-77.34L231.78-77.34L231.78-77.34Q229.71-79.58 226.05-79.58L226.05-79.58L226.05-79.58Q222.38-79.58 219.96-77.04L219.96-77.04L219.96-77.04Q217.54-74.50 217.54-69.42L217.54-69.42L217.54 0L205.43 0L205.43-88.62L217.54-88.62ZM290.45-20.09L290.45-88.62L302.62-88.62L302.62 0L290.45 0L290.45-9.04L290.45-9.04Q289.03-4.55 285.57-1.68L285.57-1.68L285.57-1.68Q282.12 1.18 276.30 1.18L276.30 1.18L276.30 1.18Q270.48 1.18 266.31-3.63L266.31-3.63L266.31-3.63Q262.15-8.45 262.15-18.43L262.15-18.43L262.15-88.62L274.26-88.62L274.26-19.79L274.26-19.79Q274.26-9.33 281.88-9.33L281.88-9.33L281.88-9.33Q286.13-9.33 288.29-12.29L288.29-12.29L288.29-12.29Q290.45-15.24 290.45-20.09L290.45-20.09ZM322.06-87.91L322.06-103.98L334.17-103.98L334.17-87.91L343.74-87.91L343.74-78.93L334.17-78.93L334.17-14.24L334.17-14.24Q334.17-10.81 335.76-9.96L335.76-9.96L335.76-9.96Q337.36-9.10 343.86-9.10L343.86-9.10L343.86 0.53L335.53 0.53L335.53 0.53Q327.14 0.53 324.60-2.51L324.60-2.51L324.60-2.51Q322.06-5.55 322.06-13.18L322.06-13.18L322.06-78.93L313.96-78.93L313.96-87.91L322.06-87.91ZM354.73-29.84L354.73-61.15L354.73-61.15Q354.73-77.93 360.75-84.49L360.75-84.49L360.75-84.49Q365.48-89.69 374.70-89.69L374.70-89.69L374.70-89.69Q388.05-89.69 391.48-78.17L391.48-78.17L391.48-78.17Q393.37-71.67 393.37-60.62L393.37-60.62L393.37-43.90L366.90-43.90L366.90-26.23L366.90-26.23Q366.90-14.71 368.73-11.88L368.73-11.88L368.73-11.88Q370.56-9.04 374.52-9.04L374.52-9.04L374.52-9.04Q378.48-9.04 379.81-12.35L379.81-12.35L379.81-12.35Q381.14-15.66 381.20-19.53L381.20-19.53L381.20-19.53Q381.26-23.40 381.26-26.06L381.26-26.06L381.26-33.20L393.13-33.20L393.13-29.42L393.13-29.42Q393.13-15.30 391.15-9.63L391.15-9.63L391.15-9.63Q389.17-3.96 385.16-1.45L385.16-1.45L385.16-1.45Q381.14 1.06 375.20 1.06L375.20 1.06L375.20 1.06Q369.26 1.06 365.69-0.44L365.69-0.44L365.69-0.44Q362.11-1.95 360.02-4.43L360.02-4.43L360.02-4.43Q357.92-6.91 356.32-12.35L356.32-12.35L356.32-12.35Q354.73-17.78 354.73-29.84L354.73-29.84ZM381.26-52.11L381.26-63.40L381.26-63.40Q381.26-72.85 380.58-74.80L380.58-74.80L380.58-74.80Q379.90-76.75 378.83-78.22L378.83-78.22L378.83-78.22Q377.77-79.70 374.99-79.70L374.99-79.70L374.99-79.70Q369.68-79.70 368.26-75.24L368.26-75.24L368.26-75.24Q366.84-70.78 366.84-62.98L366.84-62.98L366.84-52.11L381.26-52.11ZM444.18-20.32L444.18-20.32L444.18-20.32Q444.12 1.18 425.21 1.18L425.21 1.18L425.21 1.18Q415.64 1.18 410.86-4.90L410.86-4.90L410.86-4.90Q406.07-10.99 406.07-24.46L406.07-24.46L406.07-31.14L417.83-31.14L417.83-24.52L417.83-24.52Q417.83-9.16 424.80-9.16L424.80-9.16L424.80-9.16Q428.64-9.16 430.32-11.64L430.32-11.64L430.32-11.64Q432.01-14.12 432.01-20.27L432.01-20.27L432.01-20.27Q432.01-29.90 423.15-38.58L423.15-38.58L423.15-38.58Q422.50-39.23 420.07-41.51L420.07-41.51L420.07-41.51Q417.65-43.78 416.88-44.55L416.88-44.55L416.88-44.55Q405.36-55.54 405.36-68.83L405.36-68.83L405.36-68.83Q405.36-79.35 410.32-84.52L410.32-84.52L410.32-84.52Q415.29-89.69 424.45-89.69L424.45-89.69L424.45-89.69Q430.65-89.69 434.55-87.15L434.55-87.15L434.55-87.15Q442.70-81.83 442.70-62.04L442.70-62.04L442.70-57.78L431.18-57.78L431.18-63.93L431.18-63.93Q431.18-71.67 429.67-75.48L429.67-75.48L429.67-75.48Q428.17-79.29 424.50-79.29L424.50-79.29L424.50-79.29Q420.84-79.29 419.01-76.98L419.01-76.98L419.01-76.98Q417.18-74.68 417.18-69.19L417.18-69.19L417.18-69.19Q417.18-60.56 425.27-52.52L425.27-52.52L431.65-46.56L431.65-46.56Q444.18-34.56 444.18-20.32ZM486.19 0L486.19-105.11L498.30-105.11L498.30 0L486.19 0ZM514.37-29.84L514.37-61.15L514.37-61.15Q514.37-77.93 520.39-84.49L520.39-84.49L520.39-84.49Q525.12-89.69 534.34-89.69L534.34-89.69L534.34-89.69Q547.69-89.69 551.12-78.17L551.12-78.17L551.12-78.17Q553.01-71.67 553.01-60.62L553.01-60.62L553.01-43.90L526.54-43.90L526.54-26.23L526.54-26.23Q526.54-14.71 528.37-11.88L528.37-11.88L528.37-11.88Q530.20-9.04 534.16-9.04L534.16-9.04L534.16-9.04Q538.12-9.04 539.45-12.35L539.45-12.35L539.45-12.35Q540.78-15.66 540.84-19.53L540.84-19.53L540.84-19.53Q540.90-23.40 540.90-26.06L540.90-26.06L540.90-33.20L552.77-33.20L552.77-29.42L552.77-29.42Q552.77-15.30 550.79-9.63L550.79-9.63L550.79-9.63Q548.81-3.96 544.80-1.45L544.80-1.45L544.80-1.45Q540.78 1.06 534.84 1.06L534.84 1.06L534.84 1.06Q528.90 1.06 525.33-0.44L525.33-0.44L525.33-0.44Q521.75-1.95 519.66-4.43L519.66-4.43L519.66-4.43Q517.56-6.91 515.96-12.35L515.96-12.35L515.96-12.35Q514.37-17.78 514.37-29.84L514.37-29.84ZM540.90-52.11L540.90-63.40L540.90-63.40Q540.90-72.85 540.22-74.80L540.22-74.80L540.22-74.80Q539.54-76.75 538.47-78.22L538.47-78.22L538.47-78.22Q537.41-79.70 534.63-79.70L534.63-79.70L534.63-79.70Q529.32-79.70 527.90-75.24L527.90-75.24L527.90-75.24Q526.48-70.78 526.48-62.98L526.48-62.98L526.48-52.11L540.90-52.11ZM571.62-85.20L571.62-89.51L571.62-89.51Q571.62-105.52 585.33-105.52L585.33-105.52L585.33-105.52Q590.41-105.52 594.13-104.28L594.13-104.28L594.13-95.83L594.13-95.83Q591.77-96.19 588.99-96.19L588.99-96.19L588.99-96.19Q586.21-96.19 584.97-94.68L584.97-94.68L584.97-94.68Q583.73-93.17 583.73-89.98L583.73-89.98L583.73-85.20L594.13-85.20L594.13-76.27L583.73-76.27L583.73 0L571.62 0L571.62-76.27L564.00-76.27L564.00-85.20L571.62-85.20ZM607.42-87.91L607.42-103.98L619.53-103.98L619.53-87.91L629.11-87.91L629.11-78.93L619.53-78.93L619.53-14.24L619.53-14.24Q619.53-10.81 621.13-9.96L621.13-9.96L621.13-9.96Q622.72-9.10 629.22-9.10L629.22-9.10L629.22 0.53L620.89 0.53L620.89 0.53Q612.50 0.53 609.96-2.51L609.96-2.51L609.96-2.51Q607.42-5.55 607.42-13.18L607.42-13.18L607.42-78.93L599.33-78.93L599.33-87.91L607.42-87.91ZM645.88-23.34L641.39-103.98L655.28-103.98L650.85-23.34L645.88-23.34ZM641.69 0L641.69-13.47L654.81-13.47L654.81 0L641.69 0Z" fill="rgba(88.11011904761905%,39.93657644036388%,5.585849056603765%,0.98)"/></g></g><style>text {
  font-size: 64px;
  font-family: Arial Black;
  dominant-baseline: central;
  text-anchor: middle;
}</style></svg>