<svg xmlns="http://www.w3.org/2000/svg" style="background: rgba(0, 0, 0, 0);" preserveAspectRatio="xMidYMid" viewBox="-74.74 21.65 649.48 109.06"><defs><filter id="editing-hole" x="-100%" y="-100%" width="300%" height="300%"><feFlood flood-color="#000000" result="black"/><feMorphology operator="dilate" radius="2" in="SourceGraphic" result="erode"/><feGaussianBlur in="erode" stdDeviation="4" result="blur"/><feOffset in="blur" dx="2" dy="2" result="offset"/><feComposite operator="atop" in="offset" in2="black" result="merge"/><feComposite operator="in" in="merge" in2="SourceGraphic" result="inner-shadow"/></filter></defs><g filter="url(#editing-hole)"><g transform="translate(-81.48001289367676, 129.5300006866455)"><path d="M36.87-54.77L36.87-54.77L36.87-54.77Q47.62-49.87 47.62-28.65L47.62-28.65L47.62-28.65Q47.62-13.47 42.60-6.14L42.60-6.14L42.60-6.14Q37.58 1.18 26.65 1.18L26.65 1.18L26.65 1.18Q15.72 1.18 11.23-5.85L11.23-5.85L11.23-5.85Q6.74-12.88 6.74-28.00L6.74-28.00L6.74-32.61L18.55-32.61L18.55-27.83L18.55-27.83Q18.55-16.78 20.06-12.97L20.06-12.97L20.06-12.97Q21.56-9.16 26.73-9.16L26.73-9.16L26.73-9.16Q31.90-9.16 33.71-13.53L33.71-13.53L33.71-13.53Q35.51-17.90 35.51-29.22L35.51-29.22L35.51-29.22Q35.51-40.53 33.06-45.11L33.06-45.11L33.06-45.11Q30.60-49.69 24.34-49.69L24.34-49.69L20.97-49.69L20.97-59.44L24.22-59.44L24.22-59.44Q28.60-59.44 30.84-60.85L30.84-60.85L30.84-60.85Q35.39-63.69 35.39-77.57L35.39-77.57L35.39-77.57Q35.39-77.75 35.39-77.93L35.39-77.93L35.39-77.93Q35.39-88.27 33.09-91.52L33.09-91.52L33.09-91.52Q30.78-94.77 26.73-94.77L26.73-94.77L26.73-94.77Q22.69-94.77 20.83-91.07L20.83-91.07L20.83-91.07Q18.97-87.38 18.97-77.75L18.97-77.75L18.97-75.27L6.97-75.27L6.97-77.93L6.97-77.93Q6.97-91.93 11.52-98.55L11.52-98.55L11.52-98.55Q16.07-105.17 26.76-105.17L26.76-105.17L26.76-105.17Q37.46-105.17 42.42-98.40L42.42-98.40L42.42-98.40Q47.38-91.64 47.38-77.93L47.38-77.93L47.38-77.93Q47.38-58.67 36.87-54.77ZM104.16-88.62L104.16-79.41L104.16-79.41Q105.40-83.90 109.07-86.82L109.07-86.82L109.07-86.82Q112.73-89.75 117.99-89.75L117.99-89.75L117.99-89.75Q127.32-89.75 130.51-80.77L130.51-80.77L130.51-80.77Q132.76-84.90 136.63-87.32L136.63-87.32L136.63-87.32Q140.50-89.75 145.52-89.75L145.52-89.75L145.52-89.75Q152.55-89.75 156.21-84.72L156.21-84.72L156.21-84.72Q159.88-79.70 159.88-69.95L159.88-69.95L159.88 0L147.76 0L147.76-70.31L147.76-70.31Q147.76-79.29 140.67-79.29L140.67-79.29L140.67-79.29Q132.64-79.29 132.05-71.08L132.05-71.08L132.05 0L119.88 0L119.88-70.37L119.88-70.37Q119.88-79.29 112.91-79.29L112.91-79.29L112.91-79.29Q108.65-79.29 106.41-76.54L106.41-76.54L106.41-76.54Q104.16-73.79 104.16-69.01L104.16-69.01L104.16 0L92.05 0L92.05-88.62L104.16-88.62ZM176.83 0L176.83-88.62L188.94-88.62L188.94 0L176.83 0ZM176.83-96.78L176.83-107.88L189.00-107.88L189.00-96.78L176.83-96.78ZM218.49-88.62L218.49-79.23L218.49-79.23Q219.67-83.54 223.66-86.64L223.66-86.64L223.66-86.64Q227.64-89.75 233.58-89.75L233.58-89.75L233.58-89.75Q239.52-89.75 243.21-84.93L243.21-84.93L243.21-84.93Q246.90-80.12 246.90-70.66L246.90-70.66L246.90 0L234.79 0L234.79-70.60L234.79-70.60Q234.79-75.09 232.72-77.34L232.72-77.34L232.72-77.34Q230.66-79.58 226.99-79.58L226.99-79.58L226.99-79.58Q223.33-79.58 220.91-77.04L220.91-77.04L220.91-77.04Q218.49-74.50 218.49-69.42L218.49-69.42L218.49 0L206.37 0L206.37-88.62L218.49-88.62ZM291.39-20.09L291.39-88.62L303.56-88.62L303.56 0L291.39 0L291.39-9.04L291.39-9.04Q289.97-4.55 286.52-1.68L286.52-1.68L286.52-1.68Q283.06 1.18 277.24 1.18L277.24 1.18L277.24 1.18Q271.42 1.18 267.26-3.63L267.26-3.63L267.26-3.63Q263.09-8.45 263.09-18.43L263.09-18.43L263.09-88.62L275.20-88.62L275.20-19.79L275.20-19.79Q275.20-9.33 282.83-9.33L282.83-9.33L282.83-9.33Q287.08-9.33 289.24-12.29L289.24-12.29L289.24-12.29Q291.39-15.24 291.39-20.09L291.39-20.09ZM323.00-87.91L323.00-103.98L335.11-103.98L335.11-87.91L344.68-87.91L344.68-78.93L335.11-78.93L335.11-14.24L335.11-14.24Q335.11-10.81 336.71-9.96L336.71-9.96L336.71-9.96Q338.30-9.10 344.80-9.10L344.80-9.10L344.80 0.53L336.47 0.53L336.47 0.53Q328.08 0.53 325.54-2.51L325.54-2.51L325.54-2.51Q323.00-5.55 323.00-13.18L323.00-13.18L323.00-78.93L314.91-78.93L314.91-87.91L323.00-87.91ZM355.67-29.84L355.67-61.15L355.67-61.15Q355.67-77.93 361.70-84.49L361.70-84.49L361.70-84.49Q366.43-89.69 375.64-89.69L375.64-89.69L375.64-89.69Q389.00-89.69 392.42-78.17L392.42-78.17L392.42-78.17Q394.31-71.67 394.31-60.62L394.31-60.62L394.31-43.90L367.84-43.90L367.84-26.23L367.84-26.23Q367.84-14.71 369.68-11.88L369.68-11.88L369.68-11.88Q371.51-9.04 375.47-9.04L375.47-9.04L375.47-9.04Q379.42-9.04 380.75-12.35L380.75-12.35L380.75-12.35Q382.08-15.66 382.14-19.53L382.14-19.53L382.14-19.53Q382.20-23.40 382.20-26.06L382.20-26.06L382.20-33.20L394.08-33.20L394.08-29.42L394.08-29.42Q394.08-15.30 392.10-9.63L392.10-9.63L392.10-9.63Q390.12-3.96 386.10-1.45L386.10-1.45L386.10-1.45Q382.08 1.06 376.15 1.06L376.15 1.06L376.15 1.06Q370.21 1.06 366.63-0.44L366.63-0.44L366.63-0.44Q363.06-1.95 360.96-4.43L360.96-4.43L360.96-4.43Q358.86-6.91 357.27-12.35L357.27-12.35L357.27-12.35Q355.67-17.78 355.67-29.84L355.67-29.84ZM382.20-52.11L382.20-63.40L382.20-63.40Q382.20-72.85 381.52-74.80L381.52-74.80L381.52-74.80Q380.84-76.75 379.78-78.22L379.78-78.22L379.78-78.22Q378.72-79.70 375.94-79.70L375.94-79.70L375.94-79.70Q370.62-79.70 369.20-75.24L369.20-75.24L369.20-75.24Q367.79-70.78 367.79-62.98L367.79-62.98L367.79-52.11L382.20-52.11ZM445.12-20.32L445.12-20.32L445.12-20.32Q445.06 1.18 426.16 1.18L426.16 1.18L426.16 1.18Q416.59 1.18 411.80-4.90L411.80-4.90L411.80-4.90Q407.02-10.99 407.02-24.46L407.02-24.46L407.02-31.14L418.77-31.14L418.77-24.52L418.77-24.52Q418.77-9.16 425.75-9.16L425.75-9.16L425.75-9.16Q429.59-9.16 431.27-11.64L431.27-11.64L431.27-11.64Q432.95-14.12 432.95-20.27L432.95-20.27L432.95-20.27Q432.95-29.90 424.09-38.58L424.09-38.58L424.09-38.58Q423.44-39.23 421.02-41.51L421.02-41.51L421.02-41.51Q418.60-43.78 417.83-44.55L417.83-44.55L417.83-44.55Q406.31-55.54 406.31-68.83L406.31-68.83L406.31-68.83Q406.31-79.35 411.27-84.52L411.27-84.52L411.27-84.52Q416.23-89.69 425.39-89.69L425.39-89.69L425.39-89.69Q431.59-89.69 435.49-87.15L435.49-87.15L435.49-87.15Q443.65-81.83 443.65-62.04L443.65-62.04L443.65-57.78L432.13-57.78L432.13-63.93L432.13-63.93Q432.13-71.67 430.62-75.48L430.62-75.48L430.62-75.48Q429.11-79.29 425.45-79.29L425.45-79.29L425.45-79.29Q421.79-79.29 419.96-76.98L419.96-76.98L419.96-76.98Q418.12-74.68 418.12-69.19L418.12-69.19L418.12-69.19Q418.12-60.56 426.22-52.52L426.22-52.52L432.60-46.56L432.60-46.56Q445.12-34.56 445.12-20.32ZM487.13 0L487.13-105.11L499.24-105.11L499.24 0L487.13 0ZM515.31-29.84L515.31-61.15L515.31-61.15Q515.31-77.93 521.34-84.49L521.34-84.49L521.34-84.49Q526.07-89.69 535.28-89.69L535.28-89.69L535.28-89.69Q548.64-89.69 552.06-78.17L552.06-78.17L552.06-78.17Q553.95-71.67 553.95-60.62L553.95-60.62L553.95-43.90L527.48-43.90L527.48-26.23L527.48-26.23Q527.48-14.71 529.32-11.88L529.32-11.88L529.32-11.88Q531.15-9.04 535.11-9.04L535.11-9.04L535.11-9.04Q539.06-9.04 540.39-12.35L540.39-12.35L540.39-12.35Q541.72-15.66 541.78-19.53L541.78-19.53L541.78-19.53Q541.84-23.40 541.84-26.06L541.84-26.06L541.84-33.20L553.72-33.20L553.72-29.42L553.72-29.42Q553.72-15.30 551.74-9.63L551.74-9.63L551.74-9.63Q549.76-3.96 545.74-1.45L545.74-1.45L545.74-1.45Q541.72 1.06 535.79 1.06L535.79 1.06L535.79 1.06Q529.85 1.06 526.27-0.44L526.27-0.44L526.27-0.44Q522.70-1.95 520.60-4.43L520.60-4.43L520.60-4.43Q518.50-6.91 516.91-12.35L516.91-12.35L516.91-12.35Q515.31-17.78 515.31-29.84L515.31-29.84ZM541.84-52.11L541.84-63.40L541.84-63.40Q541.84-72.85 541.16-74.80L541.16-74.80L541.16-74.80Q540.48-76.75 539.42-78.22L539.42-78.22L539.42-78.22Q538.36-79.70 535.58-79.70L535.58-79.70L535.58-79.70Q530.26-79.70 528.84-75.24L528.84-75.24L528.84-75.24Q527.43-70.78 527.43-62.98L527.43-62.98L527.43-52.11L541.84-52.11ZM572.56-85.20L572.56-89.51L572.56-89.51Q572.56-105.52 586.27-105.52L586.27-105.52L586.27-105.52Q591.35-105.52 595.07-104.28L595.07-104.28L595.07-95.83L595.07-95.83Q592.71-96.19 589.93-96.19L589.93-96.19L589.93-96.19Q587.16-96.19 585.92-94.68L585.92-94.68L585.92-94.68Q584.68-93.17 584.68-89.98L584.68-89.98L584.68-85.20L595.07-85.20L595.07-76.27L584.68-76.27L584.68 0L572.56 0L572.56-76.27L564.94-76.27L564.94-85.20L572.56-85.20ZM608.37-87.91L608.37-103.98L620.48-103.98L620.48-87.91L630.05-87.91L630.05-78.93L620.48-78.93L620.48-14.24L620.48-14.24Q620.48-10.81 622.07-9.96L622.07-9.96L622.07-9.96Q623.67-9.10 630.17-9.10L630.17-9.10L630.17 0.53L621.84 0.53L621.84 0.53Q613.45 0.53 610.91-2.51L610.91-2.51L610.91-2.51Q608.37-5.55 608.37-13.18L608.37-13.18L608.37-78.93L600.27-78.93L600.27-87.91L608.37-87.91ZM646.83-23.34L642.34-103.98L656.22-103.98L651.79-23.34L646.83-23.34ZM642.64 0L642.64-13.47L655.75-13.47L655.75 0L642.64 0Z" fill="rgba(88.11011904761905%,39.93657644036388%,5.585849056603765%,0.98)"/></g></g><style>text {
  font-size: 64px;
  font-family: Arial Black;
  dominant-baseline: central;
  text-anchor: middle;
}</style></svg>