<svg xmlns="http://www.w3.org/2000/svg" style="background: rgba(0, 0, 0, 0);" preserveAspectRatio="xMidYMid" viewBox="153.5 6.4 192.8 142"><defs><filter id="editing-hole" x="-100%" y="-100%" width="300%" height="300%"><feFlood flood-color="#000000" result="black"/><feMorphology operator="dilate" radius="2" in="SourceGraphic" result="erode"/><feGaussianBlur in="erode" stdDeviation="4" result="blur"/><feOffset in="blur" dx="2" dy="2" result="offset"/><feComposite operator="atop" in="offset" in2="black" result="merge"/><feComposite operator="in" in="merge" in2="SourceGraphic" result="inner-shadow"/></filter></defs><g filter="url(#editing-hole)"><g transform="translate(153.70000763237476, 146)"><path d="M-0.20 0L43.40-137.20L66-137.20L109.60 0L90.60 0L81.20-30.60L26.80-30.60L17.40 0L-0.20 0ZM31.60-46.60L76.20-46.60L57.60-107.60L57.60-107.60Q56.80-110.40 55.70-115.70L55.70-115.70L55.70-115.70Q54.60-121 54.40-122.80L54.40-122.80L53.60-122.80L53.60-122.80Q53.40-121 52.30-115.70L52.30-115.70L52.30-115.70Q51.20-110.40 50.40-107.60L50.40-107.60L31.60-46.60ZM155 2.40L155 2.40Q136.60 2.40 126.50-8.70L126.50-8.70L126.50-8.70Q116.40-19.80 116.40-38.80L116.40-38.80L116.40-40.40L133.20-40.40L133.20-38.20L133.20-38.20Q133.20-25.40 138.50-18.80L138.50-18.80L138.50-18.80Q143.80-12.20 153.80-12.20L153.80-12.20L153.80-12.20Q164-12.20 169.90-18.60L169.90-18.60L169.90-18.60Q175.80-25 175.80-38L175.80-38L175.80-38Q175.80-62.40 153.20-62.40L153.20-62.40L141.80-62.40L141.80-77L153.60-77L153.60-77Q162-77 167.70-83.20L167.70-83.20L167.70-83.20Q173.40-89.40 173.40-101L173.40-101L173.40-101Q173.40-113 168.10-119L168.10-119L168.10-119Q162.80-125 154.60-125L154.60-125L154.60-125Q146-125 140.80-118.70L140.80-118.70L140.80-118.70Q135.60-112.40 135.60-100.20L135.60-100.20L135.60-98.40L118.80-98.40L118.80-102L118.80-102Q118.80-113.20 123.30-121.70L123.30-121.70L123.30-121.70Q127.80-130.20 135.90-134.90L135.90-134.90L135.90-134.90Q144-139.60 154.40-139.60L154.40-139.60L154.40-139.60Q170.80-139.60 180.50-129.80L180.50-129.80L180.50-129.80Q190.20-120 190.20-102L190.20-102L190.20-102Q190.20-90.60 185.50-83.30L185.50-83.30L185.50-83.30Q180.80-76 172.40-71.20L172.40-71.20L172.40-70.40L172.40-70.40Q181.60-67 187.10-58.40L187.10-58.40L187.10-58.40Q192.60-49.80 192.60-36.80L192.60-36.80L192.60-36.80Q192.60-18.80 182.20-8.20L182.20-8.20L182.20-8.20Q171.80 2.40 155 2.40L155 2.40Z" fill="#000000"/></g></g><style>text {
  font-size: 64px;
  font-family: Arial Black;
  dominant-baseline: central;
  text-anchor: middle;
}</style></svg>