<svg xmlns="http://www.w3.org/2000/svg" style="background: rgba(0, 0, 0, 0);" preserveAspectRatio="xMidYMid" viewBox="160.6 5.2 178.8 139.6"><defs><filter id="editing-hole" x="-100%" y="-100%" width="300%" height="300%"><feFlood flood-color="#000000" result="black"/><feMorphology operator="dilate" radius="2" in="SourceGraphic" result="erode"/><feGaussianBlur in="erode" stdDeviation="4" result="blur"/><feOffset in="blur" dx="2" dy="2" result="offset"/><feComposite operator="atop" in="offset" in2="black" result="merge"/><feComposite operator="in" in="merge" in2="SourceGraphic" result="inner-shadow"/></filter></defs><g filter="url(#editing-hole)"><g transform="translate(147.60000610351562, 144.8000030517578)"><path d="M13 0L13-137.20L65-137.20L65-137.20Q80.40-137.20 90.40-127.90L90.40-127.90L90.40-127.90Q100.40-118.60 100.40-103.60L100.40-103.60L100.40-103.60Q100.40-92.20 94.50-83.70L94.50-83.70L94.50-83.70Q88.60-75.20 79.40-72L79.40-72L79.40-71.20L79.40-71.20Q90-68 96.80-58.60L96.80-58.60L96.80-58.60Q103.60-49.20 103.60-36.40L103.60-36.40L103.60-36.40Q103.60-25.20 98.40-17L98.40-17L98.40-17Q93.20-8.80 84.40-4.40L84.40-4.40L84.40-4.40Q75.60 0 65 0L65 0L13 0ZM30.60-78.20L59.80-78.20L59.80-78.20Q69.60-78.20 75.80-84.50L75.80-84.50L75.80-84.50Q82-90.80 82-99.80L82-99.80L82-99.80Q82-110.40 76.40-115.80L76.40-115.80L76.40-115.80Q70.80-121.20 61-121.20L61-121.20L30.60-121.20L30.60-78.20ZM30.60-16L62.60-16L62.60-16Q72.60-16 78.90-22L78.90-22L78.90-22Q85.20-28 85.20-38.80L85.20-38.80L85.20-38.80Q85.20-48.40 78.60-55.30L78.60-55.30L78.60-55.30Q72-62.20 61.40-62.20L61.40-62.20L30.60-62.20L30.60-16ZM117.20 0L117.20-2.60L117.20-2.60Q117.20-18.40 126.80-32.40L126.80-32.40L126.80-32.40Q130.20-37.60 134.50-42.50L134.50-42.50L134.50-42.50Q138.80-47.40 145.60-54.60L145.60-54.60L145.60-54.60Q155-64.80 160.60-71.80L160.60-71.80L160.60-71.80Q166.20-78.80 170-87.10L170-87.10L170-87.10Q173.80-95.40 173.80-104.20L173.80-104.20L173.80-104.20Q173.80-112.40 169.50-118.40L169.50-118.40L169.50-118.40Q165.20-124.40 155.20-124.40L155.20-124.40L155.20-124.40Q145.20-124.40 140.60-117.10L140.60-117.10L140.60-117.10Q136-109.80 136-98.20L136-98.20L136-90L119-90L119-90Q118.80-90.60 118.60-92.80L118.60-92.80L118.60-92.80Q118.40-95 118.40-98L118.40-98L118.40-98Q118.40-118.80 128.90-129.20L128.90-129.20L128.90-129.20Q139.40-139.60 155.40-139.60L155.40-139.60L155.40-139.60Q171.40-139.60 181.30-130.80L181.30-130.80L181.30-130.80Q191.20-122 191.20-104L191.20-104L191.20-104Q191.20-93 186.70-83L186.70-83L186.70-83Q182.20-73 175.90-65L175.90-65L175.90-65Q169.60-57 159.20-45.80L159.20-45.80L159.20-45.80Q157.80-44.20 151.50-37.20L151.50-37.20L151.50-37.20Q145.20-30.20 141-23.80L141-23.80L141-23.80Q138.60-20.40 137.40-16.80L137.40-16.80L191.80-16.80L191.80 0L117.20 0Z" fill="#000000"/></g></g><style>text {
  font-size: 64px;
  font-family: Arial Black;
  dominant-baseline: central;
  text-anchor: middle;
}</style></svg>