<svg xmlns="http://www.w3.org/2000/svg" style="background: rgba(0, 0, 0, 0);" preserveAspectRatio="xMidYMid" viewBox="160.2 6.4 179.6 142"><defs><filter id="editing-hole" x="-100%" y="-100%" width="300%" height="300%"><feFlood flood-color="#000000" result="black"/><feMorphology operator="dilate" radius="2" in="SourceGraphic" result="erode"/><feGaussianBlur in="erode" stdDeviation="4" result="blur"/><feOffset in="blur" dx="2" dy="2" result="offset"/><feComposite operator="atop" in="offset" in2="black" result="merge"/><feComposite operator="in" in="merge" in2="SourceGraphic" result="inner-shadow"/></filter></defs><g filter="url(#editing-hole)"><g transform="translate(147.20000457763672, 146)"><path d="M13 0L13-137.20L65-137.20L65-137.20Q80.40-137.20 90.40-127.90L90.40-127.90L90.40-127.90Q100.40-118.60 100.40-103.60L100.40-103.60L100.40-103.60Q100.40-92.20 94.50-83.70L94.50-83.70L94.50-83.70Q88.60-75.20 79.40-72L79.40-72L79.40-71.20L79.40-71.20Q90-68 96.80-58.60L96.80-58.60L96.80-58.60Q103.60-49.20 103.60-36.40L103.60-36.40L103.60-36.40Q103.60-25.20 98.40-17L98.40-17L98.40-17Q93.20-8.80 84.40-4.40L84.40-4.40L84.40-4.40Q75.60 0 65 0L65 0L13 0ZM30.60-78.20L59.80-78.20L59.80-78.20Q69.60-78.20 75.80-84.50L75.80-84.50L75.80-84.50Q82-90.80 82-99.80L82-99.80L82-99.80Q82-110.40 76.40-115.80L76.40-115.80L76.40-115.80Q70.80-121.20 61-121.20L61-121.20L30.60-121.20L30.60-78.20ZM30.60-16L62.60-16L62.60-16Q72.60-16 78.90-22L78.90-22L78.90-22Q85.20-28 85.20-38.80L85.20-38.80L85.20-38.80Q85.20-48.40 78.60-55.30L78.60-55.30L78.60-55.30Q72-62.20 61.40-62.20L61.40-62.20L30.60-62.20L30.60-16ZM155 2.40L155 2.40Q136.60 2.40 126.50-8.70L126.50-8.70L126.50-8.70Q116.40-19.80 116.40-38.80L116.40-38.80L116.40-40.40L133.20-40.40L133.20-38.20L133.20-38.20Q133.20-25.40 138.50-18.80L138.50-18.80L138.50-18.80Q143.80-12.20 153.80-12.20L153.80-12.20L153.80-12.20Q164-12.20 169.90-18.60L169.90-18.60L169.90-18.60Q175.80-25 175.80-38L175.80-38L175.80-38Q175.80-62.40 153.20-62.40L153.20-62.40L141.80-62.40L141.80-77L153.60-77L153.60-77Q162-77 167.70-83.20L167.70-83.20L167.70-83.20Q173.40-89.40 173.40-101L173.40-101L173.40-101Q173.40-113 168.10-119L168.10-119L168.10-119Q162.80-125 154.60-125L154.60-125L154.60-125Q146-125 140.80-118.70L140.80-118.70L140.80-118.70Q135.60-112.40 135.60-100.20L135.60-100.20L135.60-98.40L118.80-98.40L118.80-102L118.80-102Q118.80-113.20 123.30-121.70L123.30-121.70L123.30-121.70Q127.80-130.20 135.90-134.90L135.90-134.90L135.90-134.90Q144-139.60 154.40-139.60L154.40-139.60L154.40-139.60Q170.80-139.60 180.50-129.80L180.50-129.80L180.50-129.80Q190.20-120 190.20-102L190.20-102L190.20-102Q190.20-90.60 185.50-83.30L185.50-83.30L185.50-83.30Q180.80-76 172.40-71.20L172.40-71.20L172.40-70.40L172.40-70.40Q181.60-67 187.10-58.40L187.10-58.40L187.10-58.40Q192.60-49.80 192.60-36.80L192.60-36.80L192.60-36.80Q192.60-18.80 182.20-8.20L182.20-8.20L182.20-8.20Q171.80 2.40 155 2.40L155 2.40Z" fill="#000000"/></g></g><style>text {
  font-size: 64px;
  font-family: Arial Black;
  dominant-baseline: central;
  text-anchor: middle;
}</style></svg>