<svg xmlns="http://www.w3.org/2000/svg" style="background: rgba(0, 0, 0, 0);" preserveAspectRatio="xMidYMid" viewBox="158.1 5.2 183.8 139.6"><defs><filter id="editing-hole" x="-100%" y="-100%" width="300%" height="300%"><feFlood flood-color="#000000" result="black"/><feMorphology operator="dilate" radius="2" in="SourceGraphic" result="erode"/><feGaussianBlur in="erode" stdDeviation="4" result="blur"/><feOffset in="blur" dx="2" dy="2" result="offset"/><feComposite operator="atop" in="offset" in2="black" result="merge"/><feComposite operator="in" in="merge" in2="SourceGraphic" result="inner-shadow"/></filter></defs><g filter="url(#editing-hole)"><g transform="translate(145.10000610351562, 144.8000030517578)"><path d="M13 0L13-137.20L65-137.20L65-137.20Q80.40-137.20 90.40-127.90L90.40-127.90L90.40-127.90Q100.40-118.60 100.40-103.60L100.40-103.60L100.40-103.60Q100.40-92.20 94.50-83.70L94.50-83.70L94.50-83.70Q88.60-75.20 79.40-72L79.40-72L79.40-71.20L79.40-71.20Q90-68 96.80-58.60L96.80-58.60L96.80-58.60Q103.60-49.20 103.60-36.40L103.60-36.40L103.60-36.40Q103.60-25.20 98.40-17L98.40-17L98.40-17Q93.20-8.80 84.40-4.40L84.40-4.40L84.40-4.40Q75.60 0 65 0L65 0L13 0ZM30.60-78.20L59.80-78.20L59.80-78.20Q69.60-78.20 75.80-84.50L75.80-84.50L75.80-84.50Q82-90.80 82-99.80L82-99.80L82-99.80Q82-110.40 76.40-115.80L76.40-115.80L76.40-115.80Q70.80-121.20 61-121.20L61-121.20L30.60-121.20L30.60-78.20ZM30.60-16L62.60-16L62.60-16Q72.60-16 78.90-22L78.90-22L78.90-22Q85.20-28 85.20-38.80L85.20-38.80L85.20-38.80Q85.20-48.40 78.60-55.30L78.60-55.30L78.60-55.30Q72-62.20 61.40-62.20L61.40-62.20L30.60-62.20L30.60-16ZM166.40 0L166.40-33.80L113.40-33.80L113.40-48.60L113.40-48.60Q124.20-68.40 133.60-92.30L133.60-92.30L133.60-92.30Q143-116.20 149-139.60L149-139.60L165.60-139.60L165.60-139.60Q162.20-122.60 155.10-103.80L155.10-103.80L155.10-103.80Q148-85 140.60-69.90L140.60-69.90L140.60-69.90Q133.20-54.80 128.80-48.40L128.80-48.40L166.40-48.40L166.40-91.60L166.40-91.60Q169.20-98.20 170.80-103.90L170.80-103.90L170.80-103.90Q172.40-109.60 174.80-119.20L174.80-119.20L182.80-119.20L182.80-48.40L196.80-48.40L196.80-33.80L182.80-33.80L182.80 0L166.40 0Z" fill="#000000"/></g></g><style>text {
  font-size: 64px;
  font-family: Arial Black;
  dominant-baseline: central;
  text-anchor: middle;
}</style></svg>