<svg xmlns="http://www.w3.org/2000/svg" style="background: rgba(0, 0, 0, 0);" preserveAspectRatio="xMidYMid" viewBox="153.3 6.4 193.4 137.2"><defs><filter id="editing-hole" x="-100%" y="-100%" width="300%" height="300%"><feFlood flood-color="#000000" result="black"/><feMorphology operator="dilate" radius="2" in="SourceGraphic" result="erode"/><feGaussianBlur in="erode" stdDeviation="4" result="blur"/><feOffset in="blur" dx="2" dy="2" result="offset"/><feComposite operator="atop" in="offset" in2="black" result="merge"/><feComposite operator="in" in="merge" in2="SourceGraphic" result="inner-shadow"/></filter></defs><g filter="url(#editing-hole)"><g transform="translate(139.29998779296875, 143.5999984741211)"><path d="M14 0L14-137.20L56.60-137.20L56.60-137.20Q81.20-137.20 94.90-120.20L94.90-120.20L94.90-120.20Q108.60-103.20 108.60-70.60L108.60-70.60L108.60-70.60Q108.60-35.80 95-17.90L95-17.90L95-17.90Q81.40 0 56.60 0L56.60 0L14 0ZM31.60-16L55-16L55-16Q71.60-16 80.90-28.50L80.90-28.50L80.90-28.50Q90.20-41 90.20-65.60L90.20-65.60L90.20-75.60L90.20-75.60Q90.20-98 80.90-109.60L80.90-109.60L80.90-109.60Q71.60-121.20 55-121.20L55-121.20L31.60-121.20L31.60-16ZM128.40 0L128.40-14.60L161-14.60L161-112.20L128.20-112.20L128.20-122.60L128.20-122.60Q137-123.60 149.40-127.70L149.40-127.70L149.40-127.70Q161.80-131.80 171-137.20L171-137.20L177.40-137.20L177.40-14.60L207.40-14.60L207.40 0L128.40 0Z" fill="#000000"/></g></g><style>text {
  font-size: 64px;
  font-family: Arial Black;
  dominant-baseline: central;
  text-anchor: middle;
}</style></svg>