<svg xmlns="http://www.w3.org/2000/svg" style="background: rgba(0, 0, 0, 0);" preserveAspectRatio="xMidYMid" viewBox="-265.08 21.65 1030.16 109.06"><defs><filter id="editing-hole" x="-100%" y="-100%" width="300%" height="300%"><feFlood flood-color="#000000" result="black"/><feMorphology operator="dilate" radius="2" in="SourceGraphic" result="erode"/><feGaussianBlur in="erode" stdDeviation="4" result="blur"/><feOffset in="blur" dx="2" dy="2" result="offset"/><feComposite operator="atop" in="offset" in2="black" result="merge"/><feComposite operator="in" in="merge" in2="SourceGraphic" result="inner-shadow"/></filter></defs><g filter="url(#editing-hole)"><g transform="translate(-266.72998666763306, 129.5300006866455)"><path d="M1.65-93.82L1.65-103.98L35.98-103.98L35.98-93.82L25.29-93.82L25.29 0L13.12 0L13.12-93.82L1.65-93.82ZM46.32 0L46.32-105.11L58.43-105.11L58.43-79.23L58.43-79.23Q59.67-83.54 63.57-86.64L63.57-86.64L63.57-86.64Q67.47-89.75 73.41-89.75L73.41-89.75L73.41-89.75Q79.35-89.75 83.07-84.93L83.07-84.93L83.07-84.93Q86.79-80.12 86.79-70.66L86.79-70.66L86.79 0L74.68 0L74.68-69.66L74.68-69.66Q74.68-79.29 67.41-79.29L67.41-79.29L67.41-79.29Q63.45-79.29 60.94-76.48L60.94-76.48L60.94-76.48Q58.43-73.68 58.43-68.18L58.43-68.18L58.43 0L46.32 0ZM102.21-29.84L102.21-61.15L102.21-61.15Q102.21-77.93 108.24-84.49L108.24-84.49L108.24-84.49Q112.96-89.69 122.18-89.69L122.18-89.69L122.18-89.69Q135.53-89.69 138.96-78.17L138.96-78.17L138.96-78.17Q140.85-71.67 140.85-60.62L140.85-60.62L140.85-43.90L114.38-43.90L114.38-26.23L114.38-26.23Q114.38-14.71 116.21-11.88L116.21-11.88L116.21-11.88Q118.05-9.04 122.00-9.04L122.00-9.04L122.00-9.04Q125.96-9.04 127.29-12.35L127.29-12.35L127.29-12.35Q128.62-15.66 128.68-19.53L128.68-19.53L128.68-19.53Q128.74-23.40 128.74-26.06L128.74-26.06L128.74-33.20L140.62-33.20L140.62-29.42L140.62-29.42Q140.62-15.30 138.64-9.63L138.64-9.63L138.64-9.63Q136.66-3.96 132.64-1.45L132.64-1.45L132.64-1.45Q128.62 1.06 122.68 1.06L122.68 1.06L122.68 1.06Q116.75 1.06 113.17-0.44L113.17-0.44L113.17-0.44Q109.60-1.95 107.50-4.43L107.50-4.43L107.50-4.43Q105.40-6.91 103.81-12.35L103.81-12.35L103.81-12.35Q102.21-17.78 102.21-29.84L102.21-29.84ZM128.74-52.11L128.74-63.40L128.74-63.40Q128.74-72.85 128.06-74.80L128.06-74.80L128.06-74.80Q127.38-76.75 126.32-78.22L126.32-78.22L126.32-78.22Q125.25-79.70 122.48-79.70L122.48-79.70L122.48-79.70Q117.16-79.70 115.74-75.24L115.74-75.24L115.74-75.24Q114.32-70.78 114.32-62.98L114.32-62.98L114.32-52.11L128.74-52.11ZM183.57-89.69L183.57-89.69L183.57-89.69Q183.80-89.69 183.80-82.01L183.80-82.01L183.75-79.41L183.75-79.41Q173.11-79.41 168.50-72.02L168.50-72.02L168.50 0L156.33 0L156.33-88.62L168.50-88.62L168.50-78.76L168.50-78.76Q170.04-83.96 173.91-86.82L173.91-86.82L173.91-86.82Q177.78-89.69 183.57-89.69ZM193.43-29.84L193.43-61.15L193.43-61.15Q193.43-77.93 199.46-84.49L199.46-84.49L199.46-84.49Q204.19-89.69 213.40-89.69L213.40-89.69L213.40-89.69Q226.76-89.69 230.18-78.17L230.18-78.17L230.18-78.17Q232.07-71.67 232.07-60.62L232.07-60.62L232.07-43.90L205.61-43.90L205.61-26.23L205.61-26.23Q205.61-14.71 207.44-11.88L207.44-11.88L207.44-11.88Q209.27-9.04 213.23-9.04L213.23-9.04L213.23-9.04Q217.19-9.04 218.51-12.35L218.51-12.35L218.51-12.35Q219.84-15.66 219.90-19.53L219.90-19.53L219.90-19.53Q219.96-23.40 219.96-26.06L219.96-26.06L219.96-33.20L231.84-33.20L231.84-29.42L231.84-29.42Q231.84-15.30 229.86-9.63L229.86-9.63L229.86-9.63Q227.88-3.96 223.86-1.45L223.86-1.45L223.86-1.45Q219.84 1.06 213.91 1.06L213.91 1.06L213.91 1.06Q207.97 1.06 204.39-0.44L204.39-0.44L204.39-0.44Q200.82-1.95 198.72-4.43L198.72-4.43L198.72-4.43Q196.63-6.91 195.03-12.35L195.03-12.35L195.03-12.35Q193.43-17.78 193.43-29.84L193.43-29.84ZM219.96-52.11L219.96-63.40L219.96-63.40Q219.96-72.85 219.28-74.80L219.28-74.80L219.28-74.80Q218.60-76.75 217.54-78.22L217.54-78.22L217.54-78.22Q216.48-79.70 213.70-79.70L213.70-79.70L213.70-79.70Q208.38-79.70 206.96-75.24L206.96-75.24L206.96-75.24Q205.55-70.78 205.55-62.98L205.55-62.98L205.55-52.11L219.96-52.11ZM277.45 0L277.45-88.62L289.56-88.62L289.56 0L277.45 0ZM277.45-96.78L277.45-107.88L289.62-107.88L289.62-96.78L277.45-96.78ZM342.32-20.32L342.32-20.32L342.32-20.32Q342.26 1.18 323.36 1.18L323.36 1.18L323.36 1.18Q313.78 1.18 309.00-4.90L309.00-4.90L309.00-4.90Q304.21-10.99 304.21-24.46L304.21-24.46L304.21-31.14L315.97-31.14L315.97-24.52L315.97-24.52Q315.97-9.16 322.94-9.16L322.94-9.16L322.94-9.16Q326.78-9.16 328.47-11.64L328.47-11.64L328.47-11.64Q330.15-14.12 330.15-20.27L330.15-20.27L330.15-20.27Q330.15-29.90 321.29-38.58L321.29-38.58L321.29-38.58Q320.64-39.23 318.22-41.51L318.22-41.51L318.22-41.51Q315.79-43.78 315.03-44.55L315.03-44.55L315.03-44.55Q303.50-55.54 303.50-68.83L303.50-68.83L303.50-68.83Q303.50-79.35 308.47-84.52L308.47-84.52L308.47-84.52Q313.43-89.69 322.59-89.69L322.59-89.69L322.59-89.69Q328.79-89.69 332.69-87.15L332.69-87.15L332.69-87.15Q340.84-81.83 340.84-62.04L340.84-62.04L340.84-57.78L329.32-57.78L329.32-63.93L329.32-63.93Q329.32-71.67 327.82-75.48L327.82-75.48L327.82-75.48Q326.31-79.29 322.65-79.29L322.65-79.29L322.65-79.29Q318.98-79.29 317.15-76.98L317.15-76.98L317.15-76.98Q315.32-74.68 315.32-69.19L315.32-69.19L315.32-69.19Q315.32-60.56 323.42-52.52L323.42-52.52L329.80-46.56L329.80-46.56Q342.32-34.56 342.32-20.32ZM412.45-54.77L412.45-54.77L412.45-54.77Q423.20-49.87 423.20-28.65L423.20-28.65L423.20-28.65Q423.20-13.47 418.18-6.14L418.18-6.14L418.18-6.14Q413.16 1.18 402.23 1.18L402.23 1.18L402.23 1.18Q391.30 1.18 386.81-5.85L386.81-5.85L386.81-5.85Q382.32-12.88 382.32-28.00L382.32-28.00L382.32-32.61L394.14-32.61L394.14-27.83L394.14-27.83Q394.14-16.78 395.64-12.97L395.64-12.97L395.64-12.97Q397.15-9.16 402.32-9.16L402.32-9.16L402.32-9.16Q407.49-9.16 409.29-13.53L409.29-13.53L409.29-13.53Q411.09-17.90 411.09-29.22L411.09-29.22L411.09-29.22Q411.09-40.53 408.64-45.11L408.64-45.11L408.64-45.11Q406.19-49.69 399.93-49.69L399.93-49.69L396.56-49.69L396.56-59.44L399.81-59.44L399.81-59.44Q404.18-59.44 406.43-60.85L406.43-60.85L406.43-60.85Q410.97-63.69 410.97-77.57L410.97-77.57L410.97-77.57Q410.97-77.75 410.97-77.93L410.97-77.93L410.97-77.93Q410.97-88.27 408.67-91.52L408.67-91.52L408.67-91.52Q406.37-94.77 402.32-94.77L402.32-94.77L402.32-94.77Q398.27-94.77 396.41-91.07L396.41-91.07L396.41-91.07Q394.55-87.38 394.55-77.75L394.55-77.75L394.55-75.27L382.56-75.27L382.56-77.93L382.56-77.93Q382.56-91.93 387.11-98.55L387.11-98.55L387.11-98.55Q391.65-105.17 402.35-105.17L402.35-105.17L402.35-105.17Q413.04-105.17 418.01-98.40L418.01-98.40L418.01-98.40Q422.97-91.64 422.97-77.93L422.97-77.93L422.97-77.93Q422.97-58.67 412.45-54.77ZM479.75-88.62L479.75-79.41L479.75-79.41Q480.99-83.90 484.65-86.82L484.65-86.82L484.65-86.82Q488.31-89.75 493.57-89.75L493.57-89.75L493.57-89.75Q502.91-89.75 506.10-80.77L506.10-80.77L506.10-80.77Q508.34-84.90 512.21-87.32L512.21-87.32L512.21-87.32Q516.08-89.75 521.10-89.75L521.10-89.75L521.10-89.75Q528.13-89.75 531.80-84.72L531.80-84.72L531.80-84.72Q535.46-79.70 535.46-69.95L535.46-69.95L535.46 0L523.35 0L523.35-70.31L523.35-70.31Q523.35-79.29 516.26-79.29L516.26-79.29L516.26-79.29Q508.22-79.29 507.63-71.08L507.63-71.08L507.63 0L495.46 0L495.46-70.37L495.46-70.37Q495.46-79.29 488.49-79.29L488.49-79.29L488.49-79.29Q484.24-79.29 481.99-76.54L481.99-76.54L481.99-76.54Q479.75-73.79 479.75-69.01L479.75-69.01L479.75 0L467.63 0L467.63-88.62L479.75-88.62ZM552.42 0L552.42-88.62L564.53-88.62L564.53 0L552.42 0ZM552.42-96.78L552.42-107.88L564.59-107.88L564.59-96.78L552.42-96.78ZM594.07-88.62L594.07-79.23L594.07-79.23Q595.25-83.54 599.24-86.64L599.24-86.64L599.24-86.64Q603.23-89.75 609.17-89.75L609.17-89.75L609.17-89.75Q615.10-89.75 618.80-84.93L618.80-84.93L618.80-84.93Q622.49-80.12 622.49-70.66L622.49-70.66L622.49 0L610.38 0L610.38-70.60L610.38-70.60Q610.38-75.09 608.31-77.34L608.31-77.34L608.31-77.34Q606.24-79.58 602.58-79.58L602.58-79.58L602.58-79.58Q598.91-79.58 596.49-77.04L596.49-77.04L596.49-77.04Q594.07-74.50 594.07-69.42L594.07-69.42L594.07 0L581.96 0L581.96-88.62L594.07-88.62ZM666.98-20.09L666.98-88.62L679.15-88.62L679.15 0L666.98 0L666.98-9.04L666.98-9.04Q665.56-4.55 662.10-1.68L662.10-1.68L662.10-1.68Q658.65 1.18 652.83 1.18L652.83 1.18L652.83 1.18Q647.01 1.18 642.84-3.63L642.84-3.63L642.84-3.63Q638.68-8.45 638.68-18.43L638.68-18.43L638.68-88.62L650.79-88.62L650.79-19.79L650.79-19.79Q650.79-9.33 658.41-9.33L658.41-9.33L658.41-9.33Q662.66-9.33 664.82-12.29L664.82-12.29L664.82-12.29Q666.98-15.24 666.98-20.09L666.98-20.09ZM698.59-87.91L698.59-103.98L710.70-103.98L710.70-87.91L720.27-87.91L720.27-78.93L710.70-78.93L710.70-14.24L710.70-14.24Q710.70-10.81 712.29-9.96L712.29-9.96L712.29-9.96Q713.89-9.10 720.39-9.10L720.39-9.10L720.39 0.53L712.06 0.53L712.06 0.53Q703.67 0.53 701.13-2.51L701.13-2.51L701.13-2.51Q698.59-5.55 698.59-13.18L698.59-13.18L698.59-78.93L690.49-78.93L690.49-87.91L698.59-87.91ZM731.26-29.84L731.26-61.15L731.26-61.15Q731.26-77.93 737.28-84.49L737.28-84.49L737.28-84.49Q742.01-89.69 751.23-89.69L751.23-89.69L751.23-89.69Q764.58-89.69 768.01-78.17L768.01-78.17L768.01-78.17Q769.90-71.67 769.90-60.62L769.90-60.62L769.90-43.90L743.43-43.90L743.43-26.23L743.43-26.23Q743.43-14.71 745.26-11.88L745.26-11.88L745.26-11.88Q747.09-9.04 751.05-9.04L751.05-9.04L751.05-9.04Q755.01-9.04 756.34-12.35L756.34-12.35L756.34-12.35Q757.67-15.66 757.73-19.53L757.73-19.53L757.73-19.53Q757.79-23.40 757.79-26.06L757.79-26.06L757.79-33.20L769.66-33.20L769.66-29.42L769.66-29.42Q769.66-15.30 767.68-9.63L767.68-9.63L767.68-9.63Q765.70-3.96 761.69-1.45L761.69-1.45L761.69-1.45Q757.67 1.06 751.73 1.06L751.73 1.06L751.73 1.06Q745.79 1.06 742.22-0.44L742.22-0.44L742.22-0.44Q738.64-1.95 736.55-4.43L736.55-4.43L736.55-4.43Q734.45-6.91 732.85-12.35L732.85-12.35L732.85-12.35Q731.26-17.78 731.26-29.84L731.26-29.84ZM757.79-52.11L757.79-63.40L757.79-63.40Q757.79-72.85 757.11-74.80L757.11-74.80L757.11-74.80Q756.43-76.75 755.36-78.22L755.36-78.22L755.36-78.22Q754.30-79.70 751.52-79.70L751.52-79.70L751.52-79.70Q746.21-79.70 744.79-75.24L744.79-75.24L744.79-75.24Q743.37-70.78 743.37-62.98L743.37-62.98L743.37-52.11L757.79-52.11ZM820.71-20.32L820.71-20.32L820.71-20.32Q820.65 1.18 801.74 1.18L801.74 1.18L801.74 1.18Q792.17 1.18 787.39-4.90L787.39-4.90L787.39-4.90Q782.60-10.99 782.60-24.46L782.60-24.46L782.60-31.14L794.36-31.14L794.36-24.52L794.36-24.52Q794.36-9.16 801.33-9.16L801.33-9.16L801.33-9.16Q805.17-9.16 806.85-11.64L806.85-11.64L806.85-11.64Q808.54-14.12 808.54-20.27L808.54-20.27L808.54-20.27Q808.54-29.90 799.68-38.58L799.68-38.58L799.68-38.58Q799.03-39.23 796.60-41.51L796.60-41.51L796.60-41.51Q794.18-43.78 793.41-44.55L793.41-44.55L793.41-44.55Q781.89-55.54 781.89-68.83L781.89-68.83L781.89-68.83Q781.89-79.35 786.85-84.52L786.85-84.52L786.85-84.52Q791.82-89.69 800.98-89.69L800.98-89.69L800.98-89.69Q807.18-89.69 811.08-87.15L811.08-87.15L811.08-87.15Q819.23-81.83 819.23-62.04L819.23-62.04L819.23-57.78L807.71-57.78L807.71-63.93L807.71-63.93Q807.71-71.67 806.20-75.48L806.20-75.48L806.20-75.48Q804.70-79.29 801.03-79.29L801.03-79.29L801.03-79.29Q797.37-79.29 795.54-76.98L795.54-76.98L795.54-76.98Q793.71-74.68 793.71-69.19L793.71-69.19L793.71-69.19Q793.71-60.56 801.80-52.52L801.80-52.52L808.18-46.56L808.18-46.56Q820.71-34.56 820.71-20.32ZM862.72 0L862.72-105.11L874.83-105.11L874.83 0L862.72 0ZM890.90-29.84L890.90-61.15L890.90-61.15Q890.90-77.93 896.92-84.49L896.92-84.49L896.92-84.49Q901.65-89.69 910.87-89.69L910.87-89.69L910.87-89.69Q924.22-89.69 927.65-78.17L927.65-78.17L927.65-78.17Q929.54-71.67 929.54-60.62L929.54-60.62L929.54-43.90L903.07-43.90L903.07-26.23L903.07-26.23Q903.07-14.71 904.90-11.88L904.90-11.88L904.90-11.88Q906.73-9.04 910.69-9.04L910.69-9.04L910.69-9.04Q914.65-9.04 915.98-12.35L915.98-12.35L915.98-12.35Q917.31-15.66 917.37-19.53L917.37-19.53L917.37-19.53Q917.43-23.40 917.43-26.06L917.43-26.06L917.43-33.20L929.30-33.20L929.30-29.42L929.30-29.42Q929.30-15.30 927.32-9.63L927.32-9.63L927.32-9.63Q925.34-3.96 921.33-1.45L921.33-1.45L921.33-1.45Q917.31 1.06 911.37 1.06L911.37 1.06L911.37 1.06Q905.43 1.06 901.86-0.44L901.86-0.44L901.86-0.44Q898.28-1.95 896.19-4.43L896.19-4.43L896.19-4.43Q894.09-6.91 892.49-12.35L892.49-12.35L892.49-12.35Q890.90-17.78 890.90-29.84L890.90-29.84ZM917.43-52.11L917.43-63.40L917.43-63.40Q917.43-72.85 916.75-74.80L916.75-74.80L916.75-74.80Q916.07-76.75 915.00-78.22L915.00-78.22L915.00-78.22Q913.94-79.70 911.16-79.70L911.16-79.70L911.16-79.70Q905.85-79.70 904.43-75.24L904.43-75.24L904.43-75.24Q903.01-70.78 903.01-62.98L903.01-62.98L903.01-52.11L917.43-52.11ZM948.15-85.20L948.15-89.51L948.15-89.51Q948.15-105.52 961.86-105.52L961.86-105.52L961.86-105.52Q966.94-105.52 970.66-104.28L970.66-104.28L970.66-95.83L970.66-95.83Q968.30-96.19 965.52-96.19L965.52-96.19L965.52-96.19Q962.74-96.19 961.50-94.68L961.50-94.68L961.50-94.68Q960.26-93.17 960.26-89.98L960.26-89.98L960.26-85.20L970.66-85.20L970.66-76.27L960.26-76.27L960.26 0L948.15 0L948.15-76.27L940.53-76.27L940.53-85.20L948.15-85.20ZM983.95-87.91L983.95-103.98L996.06-103.98L996.06-87.91L1005.64-87.91L1005.64-78.93L996.06-78.93L996.06-14.24L996.06-14.24Q996.06-10.81 997.66-9.96L997.66-9.96L997.66-9.96Q999.25-9.10 1005.75-9.10L1005.75-9.10L1005.75 0.53L997.42 0.53L997.42 0.53Q989.03 0.53 986.49-2.51L986.49-2.51L986.49-2.51Q983.95-5.55 983.95-13.18L983.95-13.18L983.95-78.93L975.86-78.93L975.86-87.91L983.95-87.91ZM1022.41-23.34L1017.92-103.98L1031.81-103.98L1027.38-23.34L1022.41-23.34ZM1018.22 0L1018.22-13.47L1031.34-13.47L1031.34 0L1018.22 0Z" fill="rgba(88.11011904761905%,39.93657644036388%,5.585849056603765%,0.98)"/></g></g><style>text {
  font-size: 64px;
  font-family: Arial Black;
  dominant-baseline: central;
  text-anchor: middle;
}</style></svg>