<svg width="293.09389648437497px" height="315.8px" xmlns="http://www.w3.org/2000/svg" viewBox="103.45305175781252 -82.9 293.09389648437497 315.8" style="background: rgba(0, 0, 0, 0);" preserveAspectRatio="xMidYMid"><defs><filter id="editing-hole" x="-100%" y="-100%" width="300%" height="300%"><feFlood flood-color="#000000" result="black"></feFlood><feMorphology operator="dilate" radius="2" in="SourceGraphic" result="erode"></feMorphology><feGaussianBlur in="erode" stdDeviation="4" result="blur"></feGaussianBlur><feOffset in="blur" dx="2" dy="2" result="offset"></feOffset><feComposite operator="atop" in="offset" in2="black" result="merge"></feComposite><feComposite operator="in" in="merge" in2="SourceGraphic" result="inner-shadow"></feComposite></filter></defs><g filter="url(#editing-hole)"><g transform="translate(150.8000137358904, 143.5999984741211)"><path d="M-0.20 0L43.40-137.20L66-137.20L109.60 0L90.60 0L81.20-30.60L26.80-30.60L17.40 0L-0.20 0ZM31.60-46.60L76.20-46.60L57.60-107.60L57.60-107.60Q56.80-110.40 55.70-115.70L55.70-115.70L55.70-115.70Q54.60-121 54.40-122.80L54.40-122.80L53.60-122.80L53.60-122.80Q53.40-121 52.30-115.70L52.30-115.70L52.30-115.70Q51.20-110.40 50.40-107.60L50.40-107.60L31.60-46.60ZM119.40 0L119.40-14.60L152-14.60L152-112.20L119.20-112.20L119.20-122.60L119.20-122.60Q128-123.60 140.40-127.70L140.40-127.70L140.40-127.70Q152.80-131.80 162-137.20L162-137.20L168.40-137.20L168.40-14.60L198.40-14.60L198.40 0L119.40 0Z" fill="#000000"></path></g></g><style>text {
  font-size: 64px;
  font-family: Arial Black;
  dominant-baseline: central;
  text-anchor: middle;
}</style></svg>