<svg width="293.09389648437497px" height="315.8px" xmlns="http://www.w3.org/2000/svg" viewBox="103.45305175781252 -82.9 293.09389648437497 315.8" style="background: rgba(0, 0, 0, 0);" preserveAspectRatio="xMidYMid"><defs><filter id="editing-hole" x="-100%" y="-100%" width="300%" height="300%"><feFlood flood-color="#000000" result="black"></feFlood><feMorphology operator="dilate" radius="2" in="SourceGraphic" result="erode"></feMorphology><feGaussianBlur in="erode" stdDeviation="4" result="blur"></feGaussianBlur><feOffset in="blur" dx="2" dy="2" result="offset"></feOffset><feComposite operator="atop" in="offset" in2="black" result="merge"></feComposite><feComposite operator="in" in="merge" in2="SourceGraphic" result="inner-shadow"></feComposite></filter></defs><g filter="url(#editing-hole)"><g transform="translate(154.10000915825367, 144.8000030517578)"><path d="M-0.20 0L43.40-137.20L66-137.20L109.60 0L90.60 0L81.20-30.60L26.80-30.60L17.40 0L-0.20 0ZM31.60-46.60L76.20-46.60L57.60-107.60L57.60-107.60Q56.80-110.40 55.70-115.70L55.70-115.70L55.70-115.70Q54.60-121 54.40-122.80L54.40-122.80L53.60-122.80L53.60-122.80Q53.40-121 52.30-115.70L52.30-115.70L52.30-115.70Q51.20-110.40 50.40-107.60L50.40-107.60L31.60-46.60ZM117.20 0L117.20-2.60L117.20-2.60Q117.20-18.40 126.80-32.40L126.80-32.40L126.80-32.40Q130.20-37.60 134.50-42.50L134.50-42.50L134.50-42.50Q138.80-47.40 145.60-54.60L145.60-54.60L145.60-54.60Q155-64.80 160.60-71.80L160.60-71.80L160.60-71.80Q166.20-78.80 170-87.10L170-87.10L170-87.10Q173.80-95.40 173.80-104.20L173.80-104.20L173.80-104.20Q173.80-112.40 169.50-118.40L169.50-118.40L169.50-118.40Q165.20-124.40 155.20-124.40L155.20-124.40L155.20-124.40Q145.20-124.40 140.60-117.10L140.60-117.10L140.60-117.10Q136-109.80 136-98.20L136-98.20L136-90L119-90L119-90Q118.80-90.60 118.60-92.80L118.60-92.80L118.60-92.80Q118.40-95 118.40-98L118.40-98L118.40-98Q118.40-118.80 128.90-129.20L128.90-129.20L128.90-129.20Q139.40-139.60 155.40-139.60L155.40-139.60L155.40-139.60Q171.40-139.60 181.30-130.80L181.30-130.80L181.30-130.80Q191.20-122 191.20-104L191.20-104L191.20-104Q191.20-93 186.70-83L186.70-83L186.70-83Q182.20-73 175.90-65L175.90-65L175.90-65Q169.60-57 159.20-45.80L159.20-45.80L159.20-45.80Q157.80-44.20 151.50-37.20L151.50-37.20L151.50-37.20Q145.20-30.20 141-23.80L141-23.80L141-23.80Q138.60-20.40 137.40-16.80L137.40-16.80L191.80-16.80L191.80 0L117.20 0Z" fill="#000000"></path></g></g><style>text {
  font-size: 64px;
  font-family: Arial Black;
  dominant-baseline: central;
  text-anchor: middle;
}</style></svg>