<svg width="305.05625px" height="315.8px" xmlns="http://www.w3.org/2000/svg" viewBox="97.47187500000001 -82.9 305.05625 315.8" style="background: rgba(0, 0, 0, 0);" preserveAspectRatio="xMidYMid"><defs><filter id="editing-hole" x="-100%" y="-100%" width="300%" height="300%"><feFlood flood-color="#000000" result="black"></feFlood><feMorphology operator="dilate" radius="2" in="SourceGraphic" result="erode"></feMorphology><feGaussianBlur in="erode" stdDeviation="4" result="blur"></feGaussianBlur><feOffset in="blur" dx="2" dy="2" result="offset"></feOffset><feComposite operator="atop" in="offset" in2="black" result="merge"></feComposite><feComposite operator="in" in="merge" in2="SourceGraphic" result="inner-shadow"></feComposite></filter></defs><g filter="url(#editing-hole)"><g transform="translate(142.09998512268066, 146)"><path d="M62.40 2.40L62.40 2.40Q8.40 2.40 8.40-68.60L8.40-68.60L8.40-68.60Q8.40-139.60 62.40-139.60L62.40-139.60L62.40-139.60Q84.20-139.60 97.20-126.30L97.20-126.30L97.20-126.30Q110.20-113 110.20-87.60L110.20-87.60L92.20-87.60L92.20-87.60Q92.20-105.20 84.20-114.30L84.20-114.30L84.20-114.30Q76.20-123.40 62.40-123.40L62.40-123.40L62.40-123.40Q44.40-123.40 35.60-111L35.60-111L35.60-111Q26.80-98.60 26.80-73.60L26.80-73.60L26.80-63.60L26.80-63.60Q26.80-38.60 35.60-26.20L35.60-26.20L35.60-26.20Q44.40-13.80 62.40-13.80L62.40-13.80L62.40-13.80Q76.60-13.80 84.70-22.80L84.70-22.80L84.70-22.80Q92.80-31.80 92.80-49.20L92.80-49.20L110.20-49.20L110.20-49.20Q110.20-23.60 97.30-10.60L97.30-10.60L97.30-10.60Q84.40 2.40 62.40 2.40L62.40 2.40ZM128.40 0L128.40-14.60L161-14.60L161-112.20L128.20-112.20L128.20-122.60L128.20-122.60Q137-123.60 149.40-127.70L149.40-127.70L149.40-127.70Q161.80-131.80 171-137.20L171-137.20L177.40-137.20L177.40-14.60L207.40-14.60L207.40 0L128.40 0Z" fill="#000000"></path></g></g><style>text {
  font-size: 64px;
  font-family: Arial Black;
  dominant-baseline: central;
  text-anchor: middle;
}</style></svg>