<svg width="305.05625px" height="315.8px" xmlns="http://www.w3.org/2000/svg" viewBox="97.47187500000001 -82.9 305.05625 315.8" style="background: rgba(0, 0, 0, 0);" preserveAspectRatio="xMidYMid"><defs><filter id="editing-hole" x="-100%" y="-100%" width="300%" height="300%"><feFlood flood-color="#000000" result="black"></feFlood><feMorphology operator="dilate" radius="2" in="SourceGraphic" result="erode"></feMorphology><feGaussianBlur in="erode" stdDeviation="4" result="blur"></feGaussianBlur><feOffset in="blur" dx="2" dy="2" result="offset"></feOffset><feComposite operator="atop" in="offset" in2="black" result="merge"></feComposite><feComposite operator="in" in="merge" in2="SourceGraphic" result="inner-shadow"></feComposite></filter></defs><g filter="url(#editing-hole)"><g transform="translate(145.39998054504395, 146)"><path d="M62.40 2.40L62.40 2.40Q8.40 2.40 8.40-68.60L8.40-68.60L8.40-68.60Q8.40-139.60 62.40-139.60L62.40-139.60L62.40-139.60Q84.20-139.60 97.20-126.30L97.20-126.30L97.20-126.30Q110.20-113 110.20-87.60L110.20-87.60L92.20-87.60L92.20-87.60Q92.20-105.20 84.20-114.30L84.20-114.30L84.20-114.30Q76.20-123.40 62.40-123.40L62.40-123.40L62.40-123.40Q44.40-123.40 35.60-111L35.60-111L35.60-111Q26.80-98.60 26.80-73.60L26.80-73.60L26.80-63.60L26.80-63.60Q26.80-38.60 35.60-26.20L35.60-26.20L35.60-26.20Q44.40-13.80 62.40-13.80L62.40-13.80L62.40-13.80Q76.60-13.80 84.70-22.80L84.70-22.80L84.70-22.80Q92.80-31.80 92.80-49.20L92.80-49.20L110.20-49.20L110.20-49.20Q110.20-23.60 97.30-10.60L97.30-10.60L97.30-10.60Q84.40 2.40 62.40 2.40L62.40 2.40ZM126.20 0L126.20-2.60L126.20-2.60Q126.20-18.40 135.80-32.40L135.80-32.40L135.80-32.40Q139.20-37.60 143.50-42.50L143.50-42.50L143.50-42.50Q147.80-47.40 154.60-54.60L154.60-54.60L154.60-54.60Q164-64.80 169.60-71.80L169.60-71.80L169.60-71.80Q175.20-78.80 179-87.10L179-87.10L179-87.10Q182.80-95.40 182.80-104.20L182.80-104.20L182.80-104.20Q182.80-112.40 178.50-118.40L178.50-118.40L178.50-118.40Q174.20-124.40 164.20-124.40L164.20-124.40L164.20-124.40Q154.20-124.40 149.60-117.10L149.60-117.10L149.60-117.10Q145-109.80 145-98.20L145-98.20L145-90L128-90L128-90Q127.80-90.60 127.60-92.80L127.60-92.80L127.60-92.80Q127.40-95 127.40-98L127.40-98L127.40-98Q127.40-118.80 137.90-129.20L137.90-129.20L137.90-129.20Q148.40-139.60 164.40-139.60L164.40-139.60L164.40-139.60Q180.40-139.60 190.30-130.80L190.30-130.80L190.30-130.80Q200.20-122 200.20-104L200.20-104L200.20-104Q200.20-93 195.70-83L195.70-83L195.70-83Q191.20-73 184.90-65L184.90-65L184.90-65Q178.60-57 168.20-45.80L168.20-45.80L168.20-45.80Q166.80-44.20 160.50-37.20L160.50-37.20L160.50-37.20Q154.20-30.20 150-23.80L150-23.80L150-23.80Q147.60-20.40 146.40-16.80L146.40-16.80L200.80-16.80L200.80 0L126.20 0Z" fill="#000000"></path></g></g><style>text {
  font-size: 64px;
  font-family: Arial Black;
  dominant-baseline: central;
  text-anchor: middle;
}</style></svg>