<svg width="305.05625px" height="315.8px" xmlns="http://www.w3.org/2000/svg" viewBox="97.47187500000001 -82.9 305.05625 315.8" style="background: rgba(0, 0, 0, 0);" preserveAspectRatio="xMidYMid"><defs><filter id="editing-hole" x="-100%" y="-100%" width="300%" height="300%"><feFlood flood-color="#000000" result="black"></feFlood><feMorphology operator="dilate" radius="2" in="SourceGraphic" result="erode"></feMorphology><feGaussianBlur in="erode" stdDeviation="4" result="blur"></feGaussianBlur><feOffset in="blur" dx="2" dy="2" result="offset"></feOffset><feComposite operator="atop" in="offset" in2="black" result="merge"></feComposite><feComposite operator="in" in="merge" in2="SourceGraphic" result="inner-shadow"></feComposite></filter></defs><g filter="url(#editing-hole)"><g transform="translate(144.99997901916504, 146)"><path d="M62.40 2.40L62.40 2.40Q8.40 2.40 8.40-68.60L8.40-68.60L8.40-68.60Q8.40-139.60 62.40-139.60L62.40-139.60L62.40-139.60Q84.20-139.60 97.20-126.30L97.20-126.30L97.20-126.30Q110.20-113 110.20-87.60L110.20-87.60L92.20-87.60L92.20-87.60Q92.20-105.20 84.20-114.30L84.20-114.30L84.20-114.30Q76.20-123.40 62.40-123.40L62.40-123.40L62.40-123.40Q44.40-123.40 35.60-111L35.60-111L35.60-111Q26.80-98.60 26.80-73.60L26.80-73.60L26.80-63.60L26.80-63.60Q26.80-38.60 35.60-26.20L35.60-26.20L35.60-26.20Q44.40-13.80 62.40-13.80L62.40-13.80L62.40-13.80Q76.60-13.80 84.70-22.80L84.70-22.80L84.70-22.80Q92.80-31.80 92.80-49.20L92.80-49.20L110.20-49.20L110.20-49.20Q110.20-23.60 97.30-10.60L97.30-10.60L97.30-10.60Q84.40 2.40 62.40 2.40L62.40 2.40ZM164 2.40L164 2.40Q145.60 2.40 135.50-8.70L135.50-8.70L135.50-8.70Q125.40-19.80 125.40-38.80L125.40-38.80L125.40-40.40L142.20-40.40L142.20-38.20L142.20-38.20Q142.20-25.40 147.50-18.80L147.50-18.80L147.50-18.80Q152.80-12.20 162.80-12.20L162.80-12.20L162.80-12.20Q173-12.20 178.90-18.60L178.90-18.60L178.90-18.60Q184.80-25 184.80-38L184.80-38L184.80-38Q184.80-62.40 162.20-62.40L162.20-62.40L150.80-62.40L150.80-77L162.60-77L162.60-77Q171-77 176.70-83.20L176.70-83.20L176.70-83.20Q182.40-89.40 182.40-101L182.40-101L182.40-101Q182.40-113 177.10-119L177.10-119L177.10-119Q171.80-125 163.60-125L163.60-125L163.60-125Q155-125 149.80-118.70L149.80-118.70L149.80-118.70Q144.60-112.40 144.60-100.20L144.60-100.20L144.60-98.40L127.80-98.40L127.80-102L127.80-102Q127.80-113.20 132.30-121.70L132.30-121.70L132.30-121.70Q136.80-130.20 144.90-134.90L144.90-134.90L144.90-134.90Q153-139.60 163.40-139.60L163.40-139.60L163.40-139.60Q179.80-139.60 189.50-129.80L189.50-129.80L189.50-129.80Q199.20-120 199.20-102L199.20-102L199.20-102Q199.20-90.60 194.50-83.30L194.50-83.30L194.50-83.30Q189.80-76 181.40-71.20L181.40-71.20L181.40-70.40L181.40-70.40Q190.60-67 196.10-58.40L196.10-58.40L196.10-58.40Q201.60-49.80 201.60-36.80L201.60-36.80L201.60-36.80Q201.60-18.80 191.20-8.20L191.20-8.20L191.20-8.20Q180.80 2.40 164 2.40L164 2.40Z" fill="#000000"></path></g></g><style>text {
  font-size: 64px;
  font-family: Arial Black;
  dominant-baseline: central;
  text-anchor: middle;
}</style></svg>