<svg width="305.05625px" height="315.8px" xmlns="http://www.w3.org/2000/svg" viewBox="97.47187500000001 -82.9 305.05625 315.8" style="background: rgba(0, 0, 0, 0);" preserveAspectRatio="xMidYMid"><defs><filter id="editing-hole" x="-100%" y="-100%" width="300%" height="300%"><feFlood flood-color="#000000" result="black"></feFlood><feMorphology operator="dilate" radius="2" in="SourceGraphic" result="erode"></feMorphology><feGaussianBlur in="erode" stdDeviation="4" result="blur"></feGaussianBlur><feOffset in="blur" dx="2" dy="2" result="offset"></feOffset><feComposite operator="atop" in="offset" in2="black" result="merge"></feComposite><feComposite operator="in" in="merge" in2="SourceGraphic" result="inner-shadow"></feComposite></filter></defs><g filter="url(#editing-hole)"><g transform="translate(142.89998054504395, 146)"><path d="M62.40 2.40L62.40 2.40Q8.40 2.40 8.40-68.60L8.40-68.60L8.40-68.60Q8.40-139.60 62.40-139.60L62.40-139.60L62.40-139.60Q84.20-139.60 97.20-126.30L97.20-126.30L97.20-126.30Q110.20-113 110.20-87.60L110.20-87.60L92.20-87.60L92.20-87.60Q92.20-105.20 84.20-114.30L84.20-114.30L84.20-114.30Q76.20-123.40 62.40-123.40L62.40-123.40L62.40-123.40Q44.40-123.40 35.60-111L35.60-111L35.60-111Q26.80-98.60 26.80-73.60L26.80-73.60L26.80-63.60L26.80-63.60Q26.80-38.60 35.60-26.20L35.60-26.20L35.60-26.20Q44.40-13.80 62.40-13.80L62.40-13.80L62.40-13.80Q76.60-13.80 84.70-22.80L84.70-22.80L84.70-22.80Q92.80-31.80 92.80-49.20L92.80-49.20L110.20-49.20L110.20-49.20Q110.20-23.60 97.30-10.60L97.30-10.60L97.30-10.60Q84.40 2.40 62.40 2.40L62.40 2.40ZM175.40 0L175.40-33.80L122.40-33.80L122.40-48.60L122.40-48.60Q133.20-68.40 142.60-92.30L142.60-92.30L142.60-92.30Q152-116.20 158-139.60L158-139.60L174.60-139.60L174.60-139.60Q171.20-122.60 164.10-103.80L164.10-103.80L164.10-103.80Q157-85 149.60-69.90L149.60-69.90L149.60-69.90Q142.20-54.80 137.80-48.40L137.80-48.40L175.40-48.40L175.40-91.60L175.40-91.60Q178.20-98.20 179.80-103.90L179.80-103.90L179.80-103.90Q181.40-109.60 183.80-119.20L183.80-119.20L191.80-119.20L191.80-48.40L205.80-48.40L205.80-33.80L191.80-33.80L191.80 0L175.40 0Z" fill="#000000"></path></g></g><style>text {
  font-size: 64px;
  font-family: Arial Black;
  dominant-baseline: central;
  text-anchor: middle;
}</style></svg>