<svg width="305.05625px" height="315.8px" xmlns="http://www.w3.org/2000/svg" viewBox="97.47187500000001 -82.9 305.05625 315.8" style="background: rgba(0, 0, 0, 0);" preserveAspectRatio="xMidYMid"><defs><filter id="editing-hole" x="-100%" y="-100%" width="300%" height="300%"><feFlood flood-color="#000000" result="black"></feFlood><feMorphology operator="dilate" radius="2" in="SourceGraphic" result="erode"></feMorphology><feGaussianBlur in="erode" stdDeviation="4" result="blur"></feGaussianBlur><feOffset in="blur" dx="2" dy="2" result="offset"></feOffset><feComposite operator="atop" in="offset" in2="black" result="merge"></feComposite><feComposite operator="in" in="merge" in2="SourceGraphic" result="inner-shadow"></feComposite></filter></defs><g filter="url(#editing-hole)"><g transform="translate(144.29998207092285, 146)"><path d="M62.40 2.40L62.40 2.40Q8.40 2.40 8.40-68.60L8.40-68.60L8.40-68.60Q8.40-139.60 62.40-139.60L62.40-139.60L62.40-139.60Q84.20-139.60 97.20-126.30L97.20-126.30L97.20-126.30Q110.20-113 110.20-87.60L110.20-87.60L92.20-87.60L92.20-87.60Q92.20-105.20 84.20-114.30L84.20-114.30L84.20-114.30Q76.20-123.40 62.40-123.40L62.40-123.40L62.40-123.40Q44.40-123.40 35.60-111L35.60-111L35.60-111Q26.80-98.60 26.80-73.60L26.80-73.60L26.80-63.60L26.80-63.60Q26.80-38.60 35.60-26.20L35.60-26.20L35.60-26.20Q44.40-13.80 62.40-13.80L62.40-13.80L62.40-13.80Q76.60-13.80 84.70-22.80L84.70-22.80L84.70-22.80Q92.80-31.80 92.80-49.20L92.80-49.20L110.20-49.20L110.20-49.20Q110.20-23.60 97.30-10.60L97.30-10.60L97.30-10.60Q84.40 2.40 62.40 2.40L62.40 2.40ZM164.80 2.40L164.80 2.40Q147.20 2.40 136.80-9.70L136.80-9.70L136.80-9.70Q126.40-21.80 126.40-42.60L126.40-42.60L143.40-42.60L143.40-42.60Q143.40-28.80 149.50-20.40L149.50-20.40L149.50-20.40Q155.60-12 164.80-12L164.80-12L164.80-12Q174.40-12 180.20-20.40L180.20-20.40L180.20-20.40Q186-28.80 186-44.80L186-44.80L186-44.80Q186-58.80 180.60-66.60L180.60-66.60L180.60-66.60Q175.20-74.40 166.20-74.40L166.20-74.40L166.20-74.40Q159.80-74.40 154.30-70.10L154.30-70.10L154.30-70.10Q148.80-65.80 145.80-58.60L145.80-58.60L130.20-61.20L134.80-137.20L197.20-137.20L197.20-120.40L149-120.40L146.40-78.60L146.40-78.60Q157-89.20 170.60-89.20L170.60-89.20L170.60-89.20Q184.80-89.20 193.90-77.80L193.90-77.80L193.90-77.80Q203-66.40 203-44.80L203-44.80L203-44.80Q203-22.40 192.80-10L192.80-10L192.80-10Q182.60 2.40 164.80 2.40L164.80 2.40Z" fill="#000000"></path></g></g><style>text {
  font-size: 64px;
  font-family: Arial Black;
  dominant-baseline: central;
  text-anchor: middle;
}</style></svg>