<svg width="305.05625px" height="315.8px" xmlns="http://www.w3.org/2000/svg" viewBox="97.47187500000001 -82.9 305.05625 315.8" style="background: rgba(0, 0, 0, 0);" preserveAspectRatio="xMidYMid"><defs><filter id="editing-hole" x="-100%" y="-100%" width="300%" height="300%"><feFlood flood-color="#000000" result="black"></feFlood><feMorphology operator="dilate" radius="2" in="SourceGraphic" result="erode"></feMorphology><feGaussianBlur in="erode" stdDeviation="4" result="blur"></feGaussianBlur><feOffset in="blur" dx="2" dy="2" result="offset"></feOffset><feComposite operator="atop" in="offset" in2="black" result="merge"></feComposite><feComposite operator="in" in="merge" in2="SourceGraphic" result="inner-shadow"></feComposite></filter></defs><g filter="url(#editing-hole)"><g transform="translate(142.59998321533203, 144.8000030517578)"><path d="M14 0L14-137.20L56.60-137.20L56.60-137.20Q81.20-137.20 94.90-120.20L94.90-120.20L94.90-120.20Q108.60-103.20 108.60-70.60L108.60-70.60L108.60-70.60Q108.60-35.80 95-17.90L95-17.90L95-17.90Q81.40 0 56.60 0L56.60 0L14 0ZM31.60-16L55-16L55-16Q71.60-16 80.90-28.50L80.90-28.50L80.90-28.50Q90.20-41 90.20-65.60L90.20-65.60L90.20-75.60L90.20-75.60Q90.20-98 80.90-109.60L80.90-109.60L80.90-109.60Q71.60-121.20 55-121.20L55-121.20L31.60-121.20L31.60-16ZM126.20 0L126.20-2.60L126.20-2.60Q126.20-18.40 135.80-32.40L135.80-32.40L135.80-32.40Q139.20-37.60 143.50-42.50L143.50-42.50L143.50-42.50Q147.80-47.40 154.60-54.60L154.60-54.60L154.60-54.60Q164-64.80 169.60-71.80L169.60-71.80L169.60-71.80Q175.20-78.80 179-87.10L179-87.10L179-87.10Q182.80-95.40 182.80-104.20L182.80-104.20L182.80-104.20Q182.80-112.40 178.50-118.40L178.50-118.40L178.50-118.40Q174.20-124.40 164.20-124.40L164.20-124.40L164.20-124.40Q154.20-124.40 149.60-117.10L149.60-117.10L149.60-117.10Q145-109.80 145-98.20L145-98.20L145-90L128-90L128-90Q127.80-90.60 127.60-92.80L127.60-92.80L127.60-92.80Q127.40-95 127.40-98L127.40-98L127.40-98Q127.40-118.80 137.90-129.20L137.90-129.20L137.90-129.20Q148.40-139.60 164.40-139.60L164.40-139.60L164.40-139.60Q180.40-139.60 190.30-130.80L190.30-130.80L190.30-130.80Q200.20-122 200.20-104L200.20-104L200.20-104Q200.20-93 195.70-83L195.70-83L195.70-83Q191.20-73 184.90-65L184.90-65L184.90-65Q178.60-57 168.20-45.80L168.20-45.80L168.20-45.80Q166.80-44.20 160.50-37.20L160.50-37.20L160.50-37.20Q154.20-30.20 150-23.80L150-23.80L150-23.80Q147.60-20.40 146.40-16.80L146.40-16.80L200.80-16.80L200.80 0L126.20 0Z" fill="#000000"></path></g></g><style>text {
  font-size: 64px;
  font-family: Arial Black;
  dominant-baseline: central;
  text-anchor: middle;
}</style></svg>