<svg width="305.05625px" height="315.8px" xmlns="http://www.w3.org/2000/svg" viewBox="97.47187500000001 -82.9 305.05625 315.8" style="background: rgba(0, 0, 0, 0);" preserveAspectRatio="xMidYMid"><defs><filter id="editing-hole" x="-100%" y="-100%" width="300%" height="300%"><feFlood flood-color="#000000" result="black"></feFlood><feMorphology operator="dilate" radius="2" in="SourceGraphic" result="erode"></feMorphology><feGaussianBlur in="erode" stdDeviation="4" result="blur"></feGaussianBlur><feOffset in="blur" dx="2" dy="2" result="offset"></feOffset><feComposite operator="atop" in="offset" in2="black" result="merge"></feComposite><feComposite operator="in" in="merge" in2="SourceGraphic" result="inner-shadow"></feComposite></filter></defs><g filter="url(#editing-hole)"><g transform="translate(140.09998321533203, 144.8000030517578)"><path d="M14 0L14-137.20L56.60-137.20L56.60-137.20Q81.20-137.20 94.90-120.20L94.90-120.20L94.90-120.20Q108.60-103.20 108.60-70.60L108.60-70.60L108.60-70.60Q108.60-35.80 95-17.90L95-17.90L95-17.90Q81.40 0 56.60 0L56.60 0L14 0ZM31.60-16L55-16L55-16Q71.60-16 80.90-28.50L80.90-28.50L80.90-28.50Q90.20-41 90.20-65.60L90.20-65.60L90.20-75.60L90.20-75.60Q90.20-98 80.90-109.60L80.90-109.60L80.90-109.60Q71.60-121.20 55-121.20L55-121.20L31.60-121.20L31.60-16ZM175.40 0L175.40-33.80L122.40-33.80L122.40-48.60L122.40-48.60Q133.20-68.40 142.60-92.30L142.60-92.30L142.60-92.30Q152-116.20 158-139.60L158-139.60L174.60-139.60L174.60-139.60Q171.20-122.60 164.10-103.80L164.10-103.80L164.10-103.80Q157-85 149.60-69.90L149.60-69.90L149.60-69.90Q142.20-54.80 137.80-48.40L137.80-48.40L175.40-48.40L175.40-91.60L175.40-91.60Q178.20-98.20 179.80-103.90L179.80-103.90L179.80-103.90Q181.40-109.60 183.80-119.20L183.80-119.20L191.80-119.20L191.80-48.40L205.80-48.40L205.80-33.80L191.80-33.80L191.80 0L175.40 0Z" fill="#000000"></path></g></g><style>text {
  font-size: 64px;
  font-family: Arial Black;
  dominant-baseline: central;
  text-anchor: middle;
}</style></svg>