<svg width="292.821875px" height="315.8px" xmlns="http://www.w3.org/2000/svg" viewBox="103.58906250000001 -82.9 292.821875 315.8" style="background: rgba(0, 0, 0, 0);" preserveAspectRatio="xMidYMid"><defs><filter id="editing-hole" x="-100%" y="-100%" width="300%" height="300%"><feFlood flood-color="#000000" result="black"></feFlood><feMorphology operator="dilate" radius="2" in="SourceGraphic" result="erode"></feMorphology><feGaussianBlur in="erode" stdDeviation="4" result="blur"></feGaussianBlur><feOffset in="blur" dx="2" dy="2" result="offset"></feOffset><feComposite operator="atop" in="offset" in2="black" result="merge"></feComposite><feComposite operator="in" in="merge" in2="SourceGraphic" result="inner-shadow"></feComposite></filter></defs><g filter="url(#editing-hole)"><g transform="translate(143.80001068115234, 143.5999984741211)"><path d="M14 0L14-137.20L98.60-137.20L98.60-121.20L31.60-121.20L31.60-78.20L89.80-78.20L89.80-62.20L31.60-62.20L31.60-16L99.80-16L99.80 0L14 0ZM119.40 0L119.40-14.60L152-14.60L152-112.20L119.20-112.20L119.20-122.60L119.20-122.60Q128-123.60 140.40-127.70L140.40-127.70L140.40-127.70Q152.80-131.80 162-137.20L162-137.20L168.40-137.20L168.40-14.60L198.40-14.60L198.40 0L119.40 0Z" fill="#000000"></path></g></g><style>text {
  font-size: 64px;
  font-family: Arial Black;
  dominant-baseline: central;
  text-anchor: middle;
}</style></svg>